<?xml version="1.0" standalone="no"?>
<!DOCTYPE svg PUBLIC "-//W3C//DTD SVG 1.1//EN" "http://www.w3.org/Graphics/SVG/1.1/DTD/svg11.dtd" >
<svg xmlns="http://www.w3.org/2000/svg">
<metadata>
This is a custom SVG webfont generated by Font Squirrel.
Copyright   : Part of the digitally encoded machine readable outline data for producing the Typefaces provided is copyrighted  2006 Linotype GmbH wwwlinotypecom All rights reserved This software is the property of Linotype GmbH and may not be reproduced used displayed modified disclosed or transferred without the express written approval of Linotype GmbH  Copyright  1988 1990 1993 Adobe Systems Incorporated All Rights Reserved Helvetica is a trademark of Heidelberger Druckmaschinen AG exclusively licensed through Linotype GmbH and may be registered in certain jurisdictions This typeface is original artwork of Linotype Design Studio The design may be protected in certain jurisdictions
Designer    : Linotype Design Studio
Foundry     : Linotype GmbH
Foundry URL : httpwwwlinotypecom
</metadata>
<defs>
<font id="HelveticaNeueLTCom37ThCn" horiz-adv-x="872" >
<font-face units-per-em="2048" ascent="1462" descent="-586" />
<missing-glyph horiz-adv-x="491" />
<glyph unicode=" "  horiz-adv-x="491" />
<glyph unicode="&#x09;" horiz-adv-x="491" />
<glyph unicode="&#xa0;" horiz-adv-x="491" />
<glyph unicode="!" horiz-adv-x="454" d="M184 0v197h86v-197h-86zM184 991v471h86v-471l-12 -610h-61z" />
<glyph unicode="&#x22;" horiz-adv-x="606" d="M154 995v467h69v-467h-69zM383 995v467h70v-467h-70z" />
<glyph unicode="#" horiz-adv-x="983" d="M27 461v69h229l51 365h-223v70h231l64 460h70l-64 -460h281l63 460h70l-64 -460h221v-70h-229l-51 -365h223v-69h-231l-64 -461h-69l63 461h-281l-63 -461h-70l64 461h-221zM326 530h280l51 365h-280z" />
<glyph unicode="$" horiz-adv-x="983" d="M70 381v45h86v-49q0 -145 70.5 -233.5t234.5 -98.5v668l-72 24q-66 23 -119 52.5t-92 69.5t-59.5 94.5t-20.5 125.5q0 84 27 151.5t74 116t114.5 75t147.5 28.5v143h61v-143q190 -10 274.5 -112.5t84.5 -270.5h-86q0 135 -62.5 219t-210.5 94v-602l86 -28 q74 -25 131.5 -55.5t95 -75t58 -103.5t20.5 -141q0 -92 -29.5 -165t-81.5 -124t-124 -78.5t-156 -32.5v-172h-61v172q-117 2 -192.5 40t-120 96.5t-61.5 130t-17 139.5zM184 1087q0 -123 62.5 -184t185.5 -96l29 -8v581q-55 -4 -105.5 -21.5t-88.5 -53t-60.5 -89 t-22.5 -129.5zM522 45q66 6 122 30.5t97 66.5t63.5 98.5t22.5 128t-18 122t-52 86t-82 59t-106 42.5l-47 14v-647z" />
<glyph unicode="%" horiz-adv-x="1402" d="M113 1087q0 178 59 270.5t190 92.5q74 0 122 -23.5t77 -69.5t40 -113.5t11 -156.5q0 -362 -250 -362q-74 0 -123 23.5t-76.5 69.5t-38.5 113.5t-11 155.5zM182 1087.5q0 -90.5 12.5 -148.5t36 -92t57.5 -47.5t74 -13.5q39 0 72 13.5t56.5 47.5t37 92t15.5 148 q0 90 -12.5 148.5t-36 92.5t-57.5 47.5t-75 13.5q-35 0 -67.5 -13.5t-57 -47.5t-40 -92t-15.5 -148.5zM352 -25l621 1475h69l-620 -1475h-70zM791 338q0 178 59 270t190 92q74 0 122 -23.5t77 -69.5t40 -113.5t11 -155.5q0 -362 -250 -363q-74 0 -123 24t-76.5 70 t-38.5 113.5t-11 155.5zM860 338q0 -90 12.5 -148.5t36 -92.5t57 -47t74.5 -13q39 0 72 13t56.5 47t37 92.5t15.5 148.5q0 90 -12.5 148.5t-36 92t-57.5 47t-75 13.5q-35 0 -67.5 -13.5t-57 -47t-40 -92t-15.5 -148.5z" />
<glyph unicode="&#x26;" horiz-adv-x="1099" d="M41 348q0 74 19.5 132.5t53 106.5t82 90t107.5 87l86 65l-67 93q-55 76 -85 141t-30 141q0 57 21.5 104.5t58.5 81t87 53t107 19.5q70 0 121 -22.5t85 -59.5t49.5 -82t15.5 -90q0 -55 -16.5 -104t-45 -92t-66.5 -81t-79 -71l-58 -47l338 -471q29 59 42.5 132t13.5 138h77 q0 -86 -21.5 -174t-62.5 -164l197 -274h-86l-147 205q-68 -98 -165.5 -164t-244.5 -66q-104 0 -177 35t-120 89.5t-68.5 120t-21.5 128.5zM127 360q0 -70 23.5 -127t64.5 -99t98.5 -65.5t124.5 -23.5q61 0 115.5 19.5t98.5 50t80 70.5t61 81l-363 506l-90 -72 q-98 -76 -155.5 -156t-57.5 -184zM285 1192q0 -25 9 -55.5t22.5 -62.5t32 -62.5t36.5 -55.5l61 -81l70 51q74 66 116 127t42 153q0 86 -54.5 136.5t-136.5 50.5q-98 0 -148 -57.5t-50 -143.5z" />
<glyph unicode="'" horiz-adv-x="376" d="M154 995v467h69v-467h-69z" />
<glyph unicode="(" horiz-adv-x="454" d="M135 542.5q0 147.5 21.5 279.5t57.5 248t81 214t94 178h62q-51 -84 -95.5 -187.5t-78 -221t-53 -246.5t-19.5 -264t19.5 -264t53 -247t77.5 -222.5t96 -186.5h-62q-49 80 -94 178.5t-81 214t-57.5 247.5t-21.5 279.5z" />
<glyph unicode=")" horiz-adv-x="454" d="M4 -377q51 82 95 186.5t78 222.5t53.5 247t19.5 264t-19.5 264t-53.5 246.5t-78 221t-95 187.5h62q49 -80 94 -178t80.5 -214t57 -248t21.5 -279.5t-21.5 -279.5t-57 -247.5t-80.5 -214t-94 -178.5h-62z" />
<glyph unicode="*" horiz-adv-x="606" d="M61 1264l25 61l188 -90v227h62v-227l184 90l25 -57l-178 -86l120 -164l-53 -39l-129 180l-135 -180l-53 39l127 164z" />
<glyph unicode="+" horiz-adv-x="1228" d="M96 483v70h484v483h69v-483h484v-70h-484v-483h-69v483h-484z" />
<glyph unicode="," horiz-adv-x="491" d="M170 -193q39 29 48 77t9 116h-24v209h86v-205q0 -61 -7.5 -103t-21.5 -72t-36.5 -51.5t-53.5 -39.5v69z" />
<glyph unicode="-" horiz-adv-x="645" d="M129 522v70h387v-70h-387z" />
<glyph unicode="." horiz-adv-x="491" d="M203 0v209h86v-209h-86z" />
<glyph unicode="/" horiz-adv-x="569" d="M-18 -25l524 1512h82l-525 -1512h-81z" />
<glyph unicode="0" horiz-adv-x="983" d="M86 713q0 381 97.5 559t308.5 178q113 0 190.5 -43t124.5 -133t68.5 -229.5t21.5 -331.5q0 -201 -24.5 -341.5t-74.5 -228.5t-127 -128t-179 -40q-111 0 -188 43t-126 134.5t-70.5 231t-21.5 329.5zM172 713q0 -207 21.5 -337t62.5 -204t100.5 -100.5t135 -26.5t135 27.5 t100.5 102.5t62.5 205t21.5 333q0 102 -5 219t-35 217t-95.5 165.5t-183.5 65.5q-80 0 -134.5 -33.5t-90.5 -89t-55 -127t-28.5 -145.5t-10.5 -145.5t-1 -126.5z" />
<glyph unicode="1" horiz-adv-x="983" d="M154 1130v70q55 6 110 27.5t104.5 55.5t86.5 77t53 90h70v-1450h-78v1303q-27 -31 -67 -60t-86 -52.5t-96 -40t-97 -20.5z" />
<glyph unicode="2" horiz-adv-x="983" d="M94 0q0 156 64.5 282t187.5 224l207 164q49 39 92 80t76 89t51.5 102t18.5 122q0 141 -76 229t-219 88q-84 0 -141.5 -31.5t-94.5 -84t-53.5 -119t-16.5 -135.5h-86q0 92 26 173t76 140t125 93t173 34q55 0 120.5 -17.5t122 -61.5t93.5 -118.5t37 -191.5 q0 -80 -19.5 -141.5t-54.5 -113.5t-84 -98t-109 -94l-192 -153q-47 -39 -90 -85t-76 -97.5t-52.5 -102.5t-19.5 -98h709v-78h-795z" />
<glyph unicode="3" horiz-adv-x="983" d="M86 377h86q0 -66 18.5 -126.5t56.5 -106.5t95 -72.5t135 -26.5q66 0 126.5 20.5t106.5 63.5t73.5 111.5t27.5 165.5q0 141 -83 229t-257 88h-63v70h63q141 0 217 70.5t76 223.5q0 137 -71.5 215t-207.5 78q-80 0 -133 -27.5t-87 -72.5t-49 -103.5t-17 -117.5h-86 q0 86 25.5 157.5t74.5 124t118.5 81t157.5 28.5q80 0 145.5 -23.5t114 -69.5t75 -113.5t26.5 -153.5q0 -59 -15.5 -114.5t-46 -100t-76.5 -75t-108 -42.5v-4q68 -6 122 -36t92 -76t58.5 -106.5t20.5 -127.5q0 -94 -27.5 -173t-82 -136.5t-133.5 -90.5t-181 -33 q-94 0 -164.5 30t-119 83t-74 127t-29.5 162z" />
<glyph unicode="4" horiz-adv-x="983" d="M68 391v78l583 981h86v-989h178v-70h-178v-391h-78v391h-591zM145 461h514v856h-4z" />
<glyph unicode="5" horiz-adv-x="983" d="M90 348v14h86v-24q10 -129 86 -211t207 -82q90 0 154.5 35t105.5 93t59.5 136t18.5 164q0 84 -20.5 156.5t-60.5 126t-99.5 84t-134.5 30.5q-68 0 -118 -20.5t-85 -50t-56.5 -63.5t-33.5 -58h-86l86 747h624v-77h-559l-69 -576h4q43 78 122.5 123t178.5 45q100 0 174 -36 t123 -99.5t72.5 -147.5t23.5 -178q0 -98 -23.5 -189t-75 -161t-129 -112t-188.5 -42q-104 0 -178 33t-120 86t-67.5 119.5t-21.5 134.5z" />
<glyph unicode="6" horiz-adv-x="983" d="M86 653q0 160 16.5 304.5t62.5 254t131 174t222 64.5q104 0 170 -38t103.5 -91t52 -108.5t14.5 -92.5h-86q0 43 -14.5 89t-46 84t-81.5 62.5t-120 24.5q-98 0 -163.5 -53t-106.5 -146.5t-58.5 -222.5t-17.5 -282v-27h4q12 45 36.5 94.5t65.5 90t100.5 66.5t141.5 26 q178 0 281.5 -118t103.5 -341q0 -106 -24.5 -196.5t-74.5 -156t-127 -102.5t-182 -37q-133 0 -211.5 59.5t-121.5 156t-56.5 217t-13.5 245.5zM188 444q0 -68 16.5 -139.5t52.5 -128.5t94.5 -94t142.5 -37q147 0 232 105.5t85 316.5q0 82 -18.5 152.5t-56.5 123t-96 83 t-138 30.5q-82 0 -141.5 -31.5t-97.5 -87t-56.5 -131.5t-18.5 -162z" />
<glyph unicode="7" horiz-adv-x="983" d="M88 1348v77h807v-77q-94 -106 -171 -230.5t-138.5 -254.5t-106.5 -258t-74.5 -242.5t-44 -208t-14.5 -154.5h-94q0 72 18.5 173t53 218t84 245t112 254t137 242.5t160.5 215.5h-729z" />
<glyph unicode="8" horiz-adv-x="983" d="M86 391q0 166 81 265.5t204 117.5v4q-119 23 -179.5 113t-60.5 205q0 160 94 257t267 97q174 0 267 -97.5t93 -256.5q0 -113 -56.5 -201t-177.5 -117v-4q129 -18 204 -117.5t75 -265.5q0 -193 -107.5 -304.5t-300.5 -111.5q-190 0 -296.5 111.5t-106.5 304.5zM172 391 q0 -162 85 -254t235 -92q143 0 231 92t88 254q0 184 -86 268t-233 84q-68 0 -126.5 -21.5t-101.5 -64.5t-67.5 -109.5t-24.5 -156.5zM217 1096q0 -135 76 -209t199 -74q129 0 201.5 74t72.5 209q0 125 -69.5 204.5t-205 79.5t-205 -79.5t-69.5 -204.5z" />
<glyph unicode="9" horiz-adv-x="983" d="M86 958q0 106 24.5 196.5t75 156t127 102.5t181.5 37q131 0 210.5 -59.5t122.5 -155.5t56.5 -217t13.5 -246q0 -160 -16.5 -305t-62.5 -254t-131 -173.5t-222 -64.5q-104 0 -170 38t-103.5 91.5t-52 108.5t-14.5 92h86q0 -43 14.5 -89t46 -84t80.5 -62.5t121 -24.5 q98 0 163.5 52.5t106.5 146.5t58.5 223t17.5 283v28h-4q-12 -47 -36.5 -96t-65.5 -90t-100.5 -66.5t-141.5 -25.5q-178 0 -281.5 117.5t-103.5 340.5zM172 958q0 -82 18.5 -152.5t56.5 -122.5t96 -83t138 -31q82 0 140.5 32t97.5 87t57.5 131t18.5 162q0 68 -16.5 139.5 t-52.5 129t-94.5 94t-142.5 36.5q-147 0 -232 -105.5t-85 -316.5z" />
<glyph unicode=":" horiz-adv-x="491" d="M203 0v209h86v-209h-86zM203 809v209h86v-209h-86z" />
<glyph unicode=";" horiz-adv-x="491" d="M170 -193q39 29 48 77t9 116h-24v209h86v-205q0 -61 -7.5 -103t-21.5 -72t-36.5 -51.5t-53.5 -39.5v69zM203 809v209h86v-209h-86z" />
<glyph unicode="&#x3c;" horiz-adv-x="1228" d="M96 483v70l1037 496v-62l-975 -469l975 -469v-61z" />
<glyph unicode="=" horiz-adv-x="1228" d="M96 283v69h1037v-69h-1037zM96 684v70h1037v-70h-1037z" />
<glyph unicode="&#x3e;" horiz-adv-x="1228" d="M96 -12v61l975 469l-975 469v62l1037 -496v-70z" />
<glyph unicode="?" d="M72 1042v33q0 68 18.5 140.5t62.5 133t115.5 99.5t175.5 39q100 0 169 -32t111 -81t59.5 -108.5t17.5 -114.5q0 -92 -25.5 -155.5t-62.5 -111.5t-82 -87t-82 -83t-62.5 -99.5t-25.5 -133.5v-106h-86v102q0 86 25.5 147.5t62.5 109.5t82 88t82 86t62.5 102.5t25.5 136.5 q0 129 -73 199.5t-196 70.5q-84 0 -139 -30.5t-88 -80t-47 -111.5t-14 -126v-27h-86zM375 0v197h86v-197h-86z" />
<glyph unicode="@" horiz-adv-x="1638" d="M63 737q0 160 62.5 297t170 237.5t250 158t304.5 57.5q154 0 286 -45t229 -127t153.5 -196.5t56.5 -256.5q0 -115 -45 -220t-116 -185t-158 -128t-173 -48q-57 0 -98 35.5t-41 107.5h-4q-53 -70 -126 -106.5t-159 -36.5q-61 0 -112 24.5t-87 65.5t-55.5 96t-19.5 117 q0 104 37 210.5t103.5 192.5t158.5 140.5t203 54.5q51 0 92 -15.5t70.5 -41t48 -59.5t24.5 -69h4l49 144h86l-194 -598l-22 -66q-11 -33 -11 -55q0 -31 24.5 -51.5t57.5 -20.5q72 0 140.5 44t120.5 117t84 165t32 188q0 131 -54.5 233.5t-143.5 173t-203.5 108.5t-233.5 38 q-145 0 -274 -55t-224.5 -150.5t-150.5 -221.5t-55 -267q0 -150 60 -273.5t159.5 -214t227.5 -140.5t261 -50q178 0 331.5 81t254.5 222h86q-49 -86 -122 -154.5t-161 -117.5t-187 -75t-202 -26q-172 0 -317.5 57.5t-251 159t-166 241.5t-60.5 304zM467 590 q0 -117 58.5 -178.5t156.5 -61.5q82 0 152.5 56.5t122 138.5t80 173t28.5 159q0 35 -5 75.5t-25.5 76.5t-58.5 59.5t-106 23.5q-92 0 -166.5 -51t-127 -128t-81 -169t-28.5 -174z" />
<glyph unicode="A" horiz-adv-x="985" d="M-8 0l454 1462h109l438 -1462h-86l-139 455h-551l-139 -455h-86zM238 524h514l-252 852h-4z" />
<glyph unicode="B" horiz-adv-x="1024" d="M125 0v1462h393q106 0 180 -26.5t119 -74.5t64.5 -114.5t19.5 -148.5q0 -147 -73.5 -229.5t-196.5 -98.5v-4q160 -12 238.5 -113.5t78.5 -255.5q0 -186 -110.5 -291.5t-307.5 -105.5h-405zM211 70h289q178 0 270 73.5t92 255.5q0 98 -27.5 162t-76.5 101.5t-117 53 t-145 15.5h-285v-661zM211 801h281q141 0 232 70.5t91 226.5q0 295 -287 295h-317v-592z" />
<glyph unicode="C" horiz-adv-x="1024" d="M78 729q0 172 25.5 312.5t82 238.5t145.5 152.5t216 54.5q129 0 209 -49t124 -119t60 -146.5t16 -130.5h-86q0 74 -19.5 141.5t-59 120t-100 83t-140.5 30.5q-109 0 -183.5 -49t-119.5 -138t-64.5 -216t-19.5 -281q0 -147 17.5 -273t59.5 -218t114.5 -144.5t183.5 -52.5 q106 0 173.5 53.5t106.5 127t54.5 148.5t15.5 118h86q0 -66 -19.5 -154t-69.5 -169t-137 -137.5t-225 -56.5q-119 0 -203.5 51.5t-138 148.5t-79 236.5t-25.5 317.5z" />
<glyph unicode="D" horiz-adv-x="1062" d="M125 0v1462h334q117 0 213 -29.5t165.5 -110.5t108.5 -223.5t39 -367.5t-43 -367.5t-115.5 -223.5t-168 -110.5t-199.5 -29.5h-334zM211 70h248q233 0 336.5 162.5t103.5 498.5q0 168 -21.5 293t-72.5 207t-136 122t-210 40h-248v-1323z" />
<glyph unicode="E" d="M125 0v1462h698v-78h-612v-583h571v-78h-571v-645h631v-78h-717z" />
<glyph unicode="F" horiz-adv-x="833" d="M125 0v1462h700v-78h-614v-583h571v-78h-571v-723h-86z" />
<glyph unicode="G" horiz-adv-x="1062" d="M78 729q0 172 25.5 312.5t82 238.5t145.5 152.5t216 54.5q129 0 209 -49t124 -119t60 -146.5t16 -130.5h-86q0 74 -19.5 141.5t-59 120t-100 83t-140.5 30.5q-109 0 -183.5 -49t-119.5 -138t-64.5 -216t-19.5 -281q0 -147 17.5 -273t59.5 -218t114.5 -144.5t183.5 -52.5 q104 0 172.5 46t110.5 121t59.5 169t17.5 190v91h-401v69h487v-731h-70v295h-4q-35 -150 -132 -235t-253 -85q-121 0 -205.5 51.5t-138 148.5t-79 236.5t-25.5 317.5z" />
<glyph unicode="H" horiz-adv-x="1062" d="M125 0v1462h86v-641h641v641h86v-1462h-86v743h-641v-743h-86z" />
<glyph unicode="I" horiz-adv-x="335" d="M125 0v1462h86v-1462h-86z" />
<glyph unicode="J" horiz-adv-x="833" d="M49 395v33h86v-45q0 -174 60.5 -256t177.5 -82q47 0 92 13.5t80 46t56.5 89t21.5 140.5v1128h86v-1128q0 -182 -92.5 -270.5t-237.5 -88.5q-98 0 -161.5 32t-100.5 87.5t-52.5 132t-15.5 168.5z" />
<glyph unicode="K" horiz-adv-x="948" d="M125 0v1462h86v-813h4l604 813h94l-458 -616l503 -846h-98l-461 774l-188 -250v-524h-86z" />
<glyph unicode="L" d="M125 0v1462h86v-1384h612v-78h-698z" />
<glyph unicode="M" horiz-adv-x="1327" d="M111 0v1462h139l416 -1315h4l405 1315h142v-1462h-87v1352h-4l-419 -1352h-86l-420 1352h-4v-1352h-86z" />
<glyph unicode="N" horiz-adv-x="1062" d="M111 0v1462h114l637 -1327h4v1327h86v-1462h-112l-639 1327h-4v-1327h-86z" />
<glyph unicode="O" horiz-adv-x="1099" d="M78 731q0 213 36 357.5t99 233.5t149.5 127t188.5 38q109 0 196 -38t148 -127t94 -233.5t33 -357.5q0 -240 -44 -388t-113.5 -230t-152.5 -110t-161 -28q-104 0 -191.5 38t-150 127t-97 233.5t-34.5 357.5zM164 731q0 -152 17.5 -277.5t61.5 -216t118.5 -141.5t189.5 -51 q205 0 295 167t90 519q0 147 -18.5 273t-62.5 218.5t-118.5 143.5t-185.5 51q-109 0 -182.5 -51t-118.5 -141t-65.5 -217t-20.5 -277z" />
<glyph unicode="P" horiz-adv-x="948" d="M125 0v1462h379q129 -2 206.5 -44t119.5 -102.5t56.5 -131t14.5 -127.5q0 -186 -108.5 -296t-307.5 -110h-274v-651h-86zM211 721h283q66 0 124 18.5t102 58.5t69.5 104.5t25.5 154.5q0 160 -80 248t-229 88h-295v-672z" />
<glyph unicode="Q" horiz-adv-x="1099" d="M78 731q0 213 36 357.5t99 233.5t149.5 127t188.5 38q109 0 196 -38t148 -127t94 -233.5t33 -357.5q0 -223 -38 -366.5t-103 -229.5l155 -160l-51 -51l-154 156q-59 -55 -130.5 -80t-149.5 -25q-104 0 -191.5 38t-150 127t-97 233.5t-34.5 357.5zM164 731 q0 -152 17.5 -277.5t61.5 -216t118.5 -141.5t189.5 -51q72 0 128 21.5t103 62.5l-180 182l51 51l174 -174q61 98 85 234.5t24 308.5q0 147 -18.5 273t-62.5 218.5t-118.5 143.5t-185.5 51q-109 0 -182.5 -51t-118.5 -141t-65.5 -217t-20.5 -277z" />
<glyph unicode="R" horiz-adv-x="1024" d="M125 0v1462h428q76 0 142.5 -22.5t115.5 -69.5t76.5 -118.5t27.5 -172.5q0 -145 -74.5 -245.5t-217.5 -116.5v-4q90 -6 145 -35t86 -77t41 -111.5t10 -139.5v-153q0 -63 10.5 -107.5t38.5 -89.5h-98q-16 33 -26.5 83t-10.5 116v149q0 78 -12 139.5t-45 103.5t-90.5 64.5 t-145.5 22.5h-315v-678h-86zM211 748h274q61 0 123 12t111 49t79.5 101.5t30.5 168.5q0 147 -76.5 230.5t-211.5 83.5h-330v-645z" />
<glyph unicode="S" horiz-adv-x="985" d="M72 354v97h86v-76q0 -70 22.5 -130.5t64.5 -104.5t103.5 -69.5t140.5 -25.5q76 0 138.5 25.5t106.5 70.5t68.5 105.5t24.5 130.5q0 72 -18 122t-53 84.5t-84 59.5t-111 47l-166 58q-147 49 -222 128.5t-75 229.5q0 88 29 158.5t81 120t123.5 76t157.5 26.5 q203 0 297.5 -107.5t94.5 -289.5h-86q0 147 -71 237t-226 90q-61 0 -117.5 -15.5t-100.5 -51t-70 -93t-26 -143.5q0 -121 59.5 -185.5t155.5 -97.5l217 -75q70 -25 125.5 -55.5t93 -74.5t58 -103.5t20.5 -139.5q0 -98 -33.5 -174t-91 -128t-135.5 -79t-164 -27 q-127 0 -207.5 39t-128 97.5t-64.5 124t-17 118.5z" />
<glyph unicode="T" d="M4 1384v78h864v-78h-389v-1384h-86v1384h-389z" />
<glyph unicode="U" horiz-adv-x="1024" d="M106 403v1059h87v-1075q0 -154 74.5 -248t244.5 -94q160 0 239.5 94t79.5 248v1075h87v-1059q0 -123 -35 -205.5t-92.5 -132t-130 -70t-148.5 -20.5t-148.5 17.5t-130 65.5t-92.5 131t-35 214z" />
<glyph unicode="V" horiz-adv-x="909" d="M2 1462h86l365 -1364h4l364 1364h86l-399 -1462h-107z" />
<glyph unicode="W" horiz-adv-x="1441" d="M23 1462h86l280 -1339h4l275 1339h104l277 -1339h4l280 1339h86l-319 -1462h-107l-270 1339h-4l-277 -1339h-102z" />
<glyph unicode="X" horiz-adv-x="948" d="M16 0l414 743l-379 719h86l340 -633l344 633h86l-385 -719l410 -743h-94l-365 664l-364 -664h-93z" />
<glyph unicode="Y" horiz-adv-x="909" d="M12 1462h94l349 -770l356 770h86l-399 -860v-602h-86v602z" />
<glyph unicode="Z" horiz-adv-x="907" d="M35 0v86l743 1298h-700v78h786v-86l-743 -1298h751v-78h-837z" />
<glyph unicode="[" horiz-adv-x="454" d="M168 -377v1839h274v-61h-204v-1716h204v-62h-274z" />
<glyph unicode="\" horiz-adv-x="569" d="M-18 1487h81l525 -1512h-82z" />
<glyph unicode="]" horiz-adv-x="454" d="M12 -315h205v1716h-205v61h275v-1839h-275v62z" />
<glyph unicode="^" horiz-adv-x="1228" d="M96 498l484 927h69l484 -927h-62l-457 874l-456 -874h-62z" />
<glyph unicode="_" horiz-adv-x="1024" d="M0 -154h1024v-102h-1024v102z" />
<glyph unicode="`" horiz-adv-x="303" d="M-20 1507h98l160 -286h-68z" />
<glyph unicode="a" horiz-adv-x="796" d="M49 274q0 123 50 194t167 101l232 64q70 18 87 54t17 104q0 74 -16.5 118.5t-44 71.5t-65.5 36t-81 9q-68 0 -112.5 -19.5t-71.5 -55.5t-38 -83t-11 -102h-78q0 55 12.5 113.5t46 106.5t92 79t152.5 31q88 0 145.5 -22.5t90 -61.5t45 -90.5t12.5 -108.5v-684 q0 -39 13.5 -55.5t33.5 -16.5q29 0 49 11v-62q-25 -18 -82 -18q-25 0 -58.5 26.5t-33.5 89.5v68h-4q-23 -86 -96.5 -141.5t-184.5 -55.5q-72 0 -122 24t-82.5 63.5t-48 95t-15.5 116.5zM135 274q0 -104 46 -166.5t151 -62.5q137 0 203.5 98.5t66.5 259.5v222h-4 q-20 -33 -48 -44.5t-87 -27.5l-158 -43q-94 -27 -132 -82.5t-38 -153.5z" />
<glyph unicode="b" d="M109 0v1462h77v-579h4q14 43 36 82t53.5 67.5t77.5 46t108 17.5q100 0 164.5 -43t101.5 -118t50.5 -177.5t13.5 -218.5q0 -125 -17.5 -228.5t-56.5 -178.5t-102.5 -116t-157.5 -41q-113 0 -181.5 60.5t-89.5 171.5h-4v-207h-77zM186 539q0 -236 59.5 -365t203.5 -129 q80 0 130 39t78.5 105.5t40 156.5t11.5 193q0 252 -55.5 369.5t-190.5 117.5q-147 0 -212 -119.5t-65 -367.5z" />
<glyph unicode="c" horiz-adv-x="796" d="M78 541q0 266 86 410.5t274 144.5q98 0 158.5 -41t94.5 -96.5t46.5 -110.5t12.5 -84h-86q0 25 -9.5 69t-35 87t-69.5 74.5t-114 31.5q-150 0 -211 -128t-61 -361q0 -254 61.5 -373t210.5 -119q74 0 120 37t70.5 86t34 100t9.5 82h86q0 -37 -13.5 -100.5t-49.5 -125 t-100.5 -105.5t-169 -44t-171 43t-105 119t-54 179.5t-15.5 224.5z" />
<glyph unicode="d" d="M78 539q0 123 15.5 225t54 176t104 115t164.5 41q111 0 174 -63.5t92 -149.5h4v579h78v-1462h-78v207h-4q-20 -111 -89 -171.5t-181 -60.5q-94 0 -158 41t-102.5 116t-56 178.5t-17.5 228.5zM164 539q0 -102 11 -192.5t40 -157t79 -105.5t130 -39q143 0 202.5 129 t59.5 365q0 264 -71.5 375.5t-194.5 111.5q-141 0 -198.5 -119.5t-57.5 -367.5z" />
<glyph unicode="e" horiz-adv-x="833" d="M78 565q0 246 88 388.5t270 142.5q94 0 158.5 -38t103.5 -109.5t55.5 -175t16.5 -232.5h-606q0 -66 4 -151t27.5 -161.5t75 -130t145.5 -53.5q84 0 136 37t79.5 86t37 100t9.5 82h78q0 -61 -17.5 -127.5t-57.5 -121t-103.5 -90.5t-153.5 -36q-104 0 -171 41t-105.5 118 t-54 185.5t-15.5 245.5zM164 610h520q0 74 -8 147.5t-35 133t-77 97.5t-132 38q-90 0 -142 -45t-81 -110.5t-37 -137.5t-8 -123z" />
<glyph unicode="f" horiz-adv-x="417" d="M16 1001v70h146v178q0 45 9 85t30.5 68t58.5 44t90 16q18 0 39 -1t41 -5v-70q-29 6 -68 7q-51 0 -86.5 -29t-35.5 -111v-182h178v-70h-178v-1001h-78v1001h-146z" />
<glyph unicode="g" d="M78 540.5q0 110.5 13 211t50 177.5t102.5 122t172.5 45q104 0 169.5 -54.5t96.5 -148.5h4v178h78v-1012q0 -98 -16.5 -179t-56.5 -138t-105.5 -88t-165.5 -31q-102 0 -160.5 34t-87.5 79t-36 89t-7 64h78q0 -86 52 -141t169 -55q137 0 197.5 80t60.5 247v197h-6 q-12 -35 -30.5 -74t-50.5 -70.5t-80 -52t-120 -20.5q-96 0 -157.5 43t-98.5 116.5t-51 172t-14 209zM164 541q0 -102 12 -189.5t42 -150t80 -97t126 -34.5q74 0 124 34.5t80.5 99t44 155t13.5 198.5q0 469 -252 469q-66 0 -116 -24.5t-83.5 -82t-52 -149.5t-18.5 -229z" />
<glyph unicode="h" horiz-adv-x="833" d="M104 0v1462h78v-553h4q14 35 38 69t57.5 59.5t77.5 42t100 16.5q57 0 106 -16.5t86 -52.5t57.5 -90t20.5 -130v-807h-78v770q0 143 -56 199.5t-157 56.5q-61 0 -109 -26.5t-80 -72.5t-49.5 -108.5t-17.5 -132.5v-686h-78z" />
<glyph unicode="i" horiz-adv-x="303" d="M113 0v1071h77v-1071h-77zM113 1253v209h77v-209h-77z" />
<glyph unicode="j" horiz-adv-x="303" d="M-78 -291q14 -2 28.5 -3t29.5 -1q25 0 48 5t41.5 20.5t31 45t12.5 81.5v1214h77v-1206q0 -66 -15 -110t-40.5 -70.5t-61.5 -38t-77 -11.5q-18 0 -36.5 1.5t-37.5 3.5v69zM113 1253v209h77v-209h-77z" />
<glyph unicode="k" horiz-adv-x="796" d="M104 0v1462h78v-960h4l463 569h99l-332 -397l391 -674h-98l-349 604l-178 -211v-393h-78z" />
<glyph unicode="l" horiz-adv-x="303" d="M113 0v1462h77v-1462h-77z" />
<glyph unicode="m" horiz-adv-x="1327" d="M117 0v1071h78v-160h4q23 86 90 135.5t168 49.5q61 0 103 -17.5t68.5 -46t40 -64.5t19.5 -73h4q6 29 24.5 63.5t50.5 65.5t78 51.5t109 20.5q129 0 192.5 -72t63.5 -201v-823h-77v805q0 111 -49.5 166t-135.5 55q-123 0 -184.5 -87t-61.5 -228v-711h-77v768 q0 123 -42 190.5t-147 67.5q-63 0 -108 -25.5t-75 -68.5t-44 -100.5t-14 -120.5v-711h-78z" />
<glyph unicode="n" horiz-adv-x="833" d="M104 0v1071h78v-162h4q14 35 38 69t57.5 59.5t77.5 42t100 16.5q57 0 106 -16.5t86 -52.5t57.5 -90t20.5 -130v-807h-78v770q0 143 -56 199.5t-157 56.5q-61 0 -109 -26.5t-80 -72.5t-49.5 -108.5t-17.5 -132.5v-686h-78z" />
<glyph unicode="o" d="M78 537q0 115 15.5 217t56 178t111.5 120t181 44q106 0 174 -44t108 -120t55.5 -178.5t15.5 -216.5q0 -117 -15.5 -218.5t-56.5 -178.5t-111.5 -121t-181.5 -44q-106 0 -174 44t-107.5 121t-55 178.5t-15.5 218.5zM164 535q0 -115 13 -206t46 -154.5t84 -96.5t129 -33 q76 0 128 33t85 96.5t46.5 154.5t13.5 206q0 117 -13.5 208t-46.5 153t-85 96t-128 34q-78 0 -129 -34t-84 -96t-46 -153t-13 -208z" />
<glyph unicode="p" d="M109 -360v1431h77v-188h4q14 43 36 82t53.5 67.5t77.5 46t108 17.5q94 0 157.5 -43t102.5 -118t54.5 -177.5t15.5 -218.5q0 -125 -17.5 -228.5t-56.5 -178.5t-102.5 -116t-157.5 -41q-113 0 -181.5 60.5t-89.5 171.5h-4v-567h-77zM186 539q0 -236 59.5 -365t203.5 -129 q80 0 130 39t78.5 105.5t40 156.5t11.5 193q0 258 -69 372.5t-177 114.5q-147 0 -212 -119.5t-65 -367.5z" />
<glyph unicode="q" d="M78 539q0 117 15.5 219t53 177t103 118t166.5 43q57 0 101 -17.5t76 -46t53.5 -67.5t35.5 -82h4v188h78v-1431h-78v567h-4q-20 -111 -89 -171.5t-181 -60.5q-94 0 -158 41t-102.5 116t-56 178.5t-17.5 228.5zM164 539q0 -102 11 -192.5t40 -157t79 -105.5t130 -39 q143 0 202.5 129t59.5 365q0 248 -65.5 367.5t-200.5 119.5q-125 0 -190.5 -116.5t-65.5 -370.5z" />
<glyph unicode="r" horiz-adv-x="493" d="M104 0v1071h78v-186h4q29 92 95.5 151.5t173.5 59.5h45v-70h-45q-68 0 -119 -29.5t-85 -78t-51.5 -111t-17.5 -127.5v-680h-78z" />
<glyph unicode="s" horiz-adv-x="720" d="M47 313v29h78v-35q0 -57 12.5 -105t41 -83t73.5 -54.5t113 -19.5q59 0 101 18.5t69.5 49t40 70.5t12.5 85q0 78 -34 131.5t-126 87.5l-158 64q-100 41 -150 102.5t-50 165.5q0 135 81.5 206t210.5 71q88 0 143.5 -28t85.5 -70t40 -94t10 -101v-33h-78v31q0 37 -6 75.5 t-27.5 72.5t-61.5 55.5t-106 21.5q-84 0 -145 -46t-61 -153q0 -86 40 -133t119 -78l164 -61q98 -37 146.5 -105.5t48.5 -179.5q0 -68 -24.5 -122t-66.5 -93t-98.5 -59.5t-119.5 -20.5q-111 0 -174.5 35t-95.5 87.5t-40 110.5t-8 105z" />
<glyph unicode="t" horiz-adv-x="417" d="M16 1001v70h146v318h78v-318h178v-70h-178v-825q0 -78 29.5 -98.5t64.5 -20.5q25 0 47 2t49 11v-70q-59 -12 -111 -12q-86 0 -121.5 46t-35.5 134v833h-146z" />
<glyph unicode="u" horiz-adv-x="833" d="M104 264v807h78v-770q0 -143 56.5 -199.5t156.5 -56.5q61 0 109.5 26.5t80 72.5t49 107.5t17.5 133.5v686h78v-1071h-78v162h-4q-14 -35 -37.5 -69t-57.5 -60.5t-78 -42t-99 -15.5q-57 0 -106.5 16.5t-86.5 52.5t-57.5 90t-20.5 130z" />
<glyph unicode="v" horiz-adv-x="720" d="M18 1071h86l261 -973h4l247 973h86l-290 -1071h-93z" />
<glyph unicode="w" horiz-adv-x="1099" d="M12 1071h86l191 -960h4l211 960h98l203 -960h4l192 960h86l-231 -1071h-98l-203 961h-4l-211 -961h-98z" />
<glyph unicode="x" horiz-adv-x="720" d="M27 0l288 551l-274 520h96l225 -455l232 455h86l-272 -520l286 -551h-96l-240 483l-245 -483h-86z" />
<glyph unicode="y" horiz-adv-x="720" d="M18 1071h86l271 -960h4l237 960h86l-292 -1083l-39 -148q-31 -111 -87.5 -155.5t-150.5 -44.5q-20 0 -39.5 1t-40.5 3v69q23 -2 36 -3t32 -1q37 0 64.5 6t48 24.5t37 51.5t30.5 86l33 113z" />
<glyph unicode="z" horiz-adv-x="684" d="M31 0v70l530 931h-502v70h588v-70l-530 -931h536v-70h-622z" />
<glyph unicode="{" horiz-adv-x="454" d="M59 512v61q43 0 71 27t45.5 70t23.5 97t6 110v344q0 139 46 190t132 51h100v-61h-104q-59 0 -82 -44t-23 -136v-340q0 -106 -17 -171t-40.5 -101t-48.5 -49t-39 -15v-4q14 -4 39 -16.5t48.5 -47.5t40.5 -99.5t17 -170.5v-342q0 -92 22.5 -136t82.5 -44h104v-62h-100 q-86 0 -132 51.5t-46 190.5v344q0 55 -6 109.5t-23.5 97.5t-45.5 69.5t-71 26.5z" />
<glyph unicode="|" horiz-adv-x="454" d="M188 -25v1512h78v-1512h-78z" />
<glyph unicode="}" horiz-adv-x="454" d="M-29 -315h105q59 0 81.5 44t22.5 136v340q0 106 17.5 170.5t41 100.5t48 48.5t39.5 16.5v4q-14 2 -39 15t-48.5 48t-41 99.5t-17.5 171.5v342q0 92 -22.5 136t-81.5 44h-105v61h101q86 0 132 -51t46 -190v-344q0 -55 6 -109.5t23.5 -97.5t45 -70t70.5 -27v-61 q-43 0 -70.5 -26.5t-45 -69.5t-23.5 -97.5t-6 -109.5v-344q0 -139 -46 -190.5t-132 -51.5h-101v62z" />
<glyph unicode="~" horiz-adv-x="1228" d="M147 453q23 35 45.5 65.5t51 54t65.5 37t88 13.5q59 0 115.5 -21.5t110 -48.5t106.5 -48.5t115 -21.5q37 0 65.5 15.5t52 37t40.5 47.5l32 46l47 -45l-45 -66t-51 -54.5t-65.5 -36.5t-88.5 -13q-59 0 -115.5 21.5t-109.5 48t-106.5 48t-114.5 21.5q-37 0 -66.5 -15.5 t-52 -37t-40.5 -46.5l-31 -46z" />
<glyph unicode="&#xa1;" horiz-adv-x="454" d="M184 127l13 610h61l12 -610v-479h-86v479zM184 913v197h86v-197h-86z" />
<glyph unicode="&#xa2;" horiz-adv-x="983" d="M154 541q0 258 76.5 398t250.5 157v159h49v-159q92 -4 149.5 -46t90.5 -96.5t44 -108.5t11 -81h-86q0 25 -9 66.5t-32.5 83.5t-63.5 75t-104 37v-981q68 6 110 44t64.5 86t30.5 97.5t8 77.5h86q0 -37 -11 -96t-44 -118.5t-91 -105.5t-153 -55v-186h-49v186 q-98 4 -161.5 49.5t-100.5 121t-51 177t-14 218.5zM240 537q0 -236 53 -357t188 -135v981q-131 -16 -186 -144t-55 -345z" />
<glyph unicode="&#xa3;" horiz-adv-x="983" d="M49 51q47 45 93 94.5t82 104.5t57.5 117.5t21.5 132.5q0 98 -39 184h-207v70h179l-48 75q-25 39 -44 82t-32.5 88t-13.5 95q0 78 30 143.5t83 112.5t124 73.5t154 26.5q109 0 187 -35t127 -93t72.5 -135t23.5 -161h-86q0 76 -17.5 140.5t-57.5 111.5t-102.5 74.5 t-150.5 27.5q-59 0 -113.5 -19.5t-96.5 -55t-66.5 -88t-24.5 -115.5q0 -45 13.5 -91t34 -91.5t44.5 -86.5l46 -79h286v-70h-258q16 -41 27.5 -84t11.5 -100q0 -129 -72.5 -241t-177.5 -198l4 -4q37 25 80 44.5t90 19.5q37 0 76 -10.5t80 -26.5t81 -27.5t75 -11.5 q43 0 85 14.5t77.5 34t63.5 39.5l44 33l39 -57q-66 -57 -142.5 -95.5t-162.5 -38.5q-43 0 -85 11.5t-83 28t-85 26.5t-93 10q-59 0 -107.5 -23.5t-79.5 -45.5z" />
<glyph unicode="&#xa4;" horiz-adv-x="983" d="M55 713q0 82 28 154.5t77 129.5l-101 101l47 47l103 -101q57 51 130 78t153 27q86 0 157.5 -27.5t124.5 -77.5l103 101l47 -47l-101 -101q104 -121 105 -284q0 -86 -28 -158t-77 -125l101 -102l-47 -47l-103 100q-57 -51 -130 -78t-152.5 -27t-152.5 27t-130 78 l-103 -100l-47 47l101 102q-49 53 -77 125t-28 158zM133 713q0 -78 28.5 -144.5t77 -116t114 -78t139 -28.5t139 28.5t114 78t77 116t28.5 144.5q0 76 -28.5 143.5t-77 116.5t-114 77.5t-139 28.5t-139 -28.5t-114 -77.5t-77 -116.5t-28.5 -143.5z" />
<glyph unicode="&#xa5;" horiz-adv-x="983" d="M49 1425h94l349 -751l356 751h86l-365 -768h258v-69h-292v-168h292v-70h-292v-350h-86v350h-277v70h277v168h-277v69h242z" />
<glyph unicode="&#xa6;" horiz-adv-x="454" d="M188 -25v545h78v-545h-78zM188 942v545h78v-545h-78z" />
<glyph unicode="&#xa7;" horiz-adv-x="985" d="M78 694q0 92 55 169t162 128q-47 41 -83 88t-36 127q0 68 26.5 121t73 88t105.5 53.5t127 18.5q86 0 145.5 -26.5t98.5 -68.5t56 -93.5t17 -98.5v-12h-86v12q0 39 -13 78t-42 69.5t-72 50t-104 19.5q-66 0 -112 -17.5t-75.5 -47t-44 -67.5t-14.5 -79q0 -72 46 -119 t132 -104l314 -211q86 -57 119.5 -122.5t33.5 -145.5q0 -92 -52 -161t-159 -124q70 -57 101.5 -114.5t31.5 -131.5q0 -53 -19 -103t-60 -90t-103.5 -64.5t-148.5 -24.5q-88 0 -151.5 26.5t-105.5 69.5t-61.5 97.5t-19.5 111.5v45h86v-31q0 -111 62.5 -180.5t185.5 -69.5 q117 0 183 56.5t66 154.5q0 47 -19 86t-50 73t-71 63l-81 57l-291 194q-78 51 -115.5 109.5t-37.5 140.5zM164 696q0 -41 17.5 -75.5t46 -63.5t64.5 -54l70 -50l279 -193q31 16 63.5 37.5t58 50.5t42 66t16.5 86q0 78 -34.5 130t-96.5 93l-340 227q-31 -16 -64.5 -38.5 t-60 -53.5t-44 -71t-17.5 -91z" />
<glyph unicode="&#xa8;" horiz-adv-x="303" d="M-29 1260v208h86v-208h-86zM246 1260v208h86v-208h-86z" />
<glyph unicode="&#xa9;" horiz-adv-x="1638" d="M63 731q0 156 59.5 294t162 240.5t240 162t294.5 59.5q156 0 294 -59.5t240.5 -162t162 -240.5t59.5 -294q0 -158 -59.5 -295t-162 -239.5t-240.5 -162t-294 -59.5q-158 0 -295 59.5t-239.5 162t-162 239.5t-59.5 295zM141 731q0 -141 53.5 -264t145.5 -215t215 -145.5 t264.5 -53.5t264 53.5t215 145.5t145.5 215t53 264t-53 264t-145.5 215.5t-215 145.5t-264 53t-264.5 -53t-215 -145.5t-145.5 -215.5t-53.5 -264zM379 733q0 113 35 202t95 150.5t140 94t170 32.5q172 0 280.5 -77.5t133.5 -239.5h-86q-23 119 -108 183.5t-220 64.5 q-88 0 -154.5 -37t-110.5 -95.5t-66.5 -131t-22.5 -146.5q0 -86 24.5 -161.5t70.5 -132t111.5 -89.5t147.5 -33q141 0 220 72t108 189h86q-23 -147 -131.5 -238.5t-282.5 -91.5q-94 0 -175 31.5t-139.5 93t-92 152.5t-33.5 208z" />
<glyph unicode="&#xaa;" horiz-adv-x="565" d="M37 950q0 68 33.5 117t109.5 72l129 39q41 12 63.5 27.5t22.5 60.5q0 74 -35.5 98.5t-95.5 24.5q-49 0 -75.5 -15.5t-41 -38t-17.5 -46t-3 -38.5h-70q0 33 8.5 68t31 63.5t63.5 48t106 19.5q61 0 100.5 -13.5t61 -38t29.5 -56t8 -68.5v-406q0 -51 31 -51q16 0 32 6v-39 q-18 -12 -49 -12q-39 0 -61.5 17.5t-22.5 54.5v30h-4q-23 -41 -69 -71.5t-119 -30.5q-86 0 -126 52t-40 126zM106 956q0 -51 29 -86.5t86 -35.5q86 0 130 55t44 129v143h-4q-16 -12 -38.5 -19t-45.5 -16l-104 -32q-55 -16 -76 -52.5t-21 -85.5z" />
<glyph unicode="&#xab;" horiz-adv-x="681" d="M106 514v78l234 285v-103l-172 -221l172 -213v-102zM342 514v78l233 285v-103l-172 -221l172 -213v-102z" />
<glyph unicode="&#xac;" horiz-adv-x="1228" d="M96 684v70h1037v-533h-70v463h-967z" />
<glyph unicode="&#xad;" horiz-adv-x="645" d="M129 522v70h387v-70h-387z" />
<glyph unicode="&#xae;" horiz-adv-x="1638" d="M63 731q0 156 59.5 294t162 240.5t240 162t294.5 59.5q156 0 294 -59.5t240.5 -162t162 -240.5t59.5 -294q0 -158 -59.5 -295t-162 -239.5t-240.5 -162t-294 -59.5q-158 0 -295 59.5t-239.5 162t-162 239.5t-59.5 295zM141 731q0 -141 53.5 -264t145.5 -215t215 -145.5 t264.5 -53.5t264 53.5t215 145.5t145.5 215t53 264t-53 264t-145.5 215.5t-215 145.5t-264 53t-264.5 -53t-215 -145.5t-145.5 -215.5t-53.5 -264zM537 285v897h344q297 0 297 -250q0 -57 -19.5 -99t-51.5 -71t-74 -46.5t-87 -25.5l266 -405h-92l-266 407h-231v-407h-86z M623 762h227q104 0 173 38t69 134q0 98 -61.5 138t-160.5 40h-247v-350z" />
<glyph unicode="&#xaf;" horiz-adv-x="303" d="M-70 1333v62h443v-62h-443z" />
<glyph unicode="&#xb0;" horiz-adv-x="819" d="M117 1157.5q0 61.5 22.5 114.5t62.5 93t93 62.5t114.5 22.5t115 -22.5t93 -62.5t62 -93t22.5 -114.5t-22.5 -115t-62 -93.5t-93 -62.5t-115 -22.5t-114.5 22.5t-93 62.5t-62.5 93.5t-22.5 115zM186 1157q0 -47 17.5 -87t48.5 -70.5t70.5 -48t87.5 -17.5q45 0 86 17.5 t71.5 48t48 70.5t17.5 87q0 45 -17.5 86t-48 72t-71.5 48t-86 17q-47 0 -87 -17t-71 -48t-48.5 -72t-17.5 -86z" />
<glyph unicode="&#xb1;" horiz-adv-x="1228" d="M96 0v70h1037v-70h-1037zM96 573v70h484v393h69v-393h484v-70h-484v-393h-69v393h-484z" />
<glyph unicode="&#xb2;" horiz-adv-x="641" d="M61 573v31q0 68 32 141.5t122 139.5l139 100q72 53 114 104.5t42 120.5q0 86 -48 132.5t-130 46.5q-59 0 -97 -17.5t-61.5 -47.5t-33 -66.5t-9.5 -73.5h-70q0 113 66 189.5t203 76.5q41 0 85 -10t80.5 -36t60.5 -69t24 -108q0 -53 -12.5 -93t-36 -73t-56.5 -60.5 t-74 -58.5l-153 -113q-76 -55 -96.5 -107t-20.5 -87h449v-62h-519z" />
<glyph unicode="&#xb3;" horiz-adv-x="641" d="M51 803h70q0 -31 11 -63.5t34.5 -59.5t60.5 -43t86 -16q39 0 76 12t65.5 36.5t47 61.5t18.5 88q0 86 -53 132t-164 46h-35v62h35q88 0 137 46t49 124q0 74 -45 117t-125 43q-49 0 -82.5 -15.5t-55 -41t-32 -56.5t-10.5 -62h-69q0 104 65.5 170t194.5 66 q100 0 164.5 -55.5t64.5 -161.5q0 -72 -39 -129t-121 -70v-6q98 -12 144.5 -66.5t46.5 -140.5q0 -117 -69.5 -189.5t-201.5 -72.5q-74 0 -124 19.5t-82.5 53.5t-47 78t-14.5 93z" />
<glyph unicode="&#xb4;" horiz-adv-x="303" d="M70 1221l159 286h99l-191 -286h-67z" />
<glyph unicode="&#xb5;" horiz-adv-x="833" d="M104 -360v1431h78v-770q0 -143 56.5 -199.5t156.5 -56.5q61 0 109.5 26.5t80 72.5t49 107.5t17.5 133.5v686h78v-1071h-78v162h-4q-14 -35 -37.5 -69t-57.5 -60.5t-78 -42t-99 -15.5q-49 0 -97.5 21.5t-91.5 77.5h-4v-434h-78z" />
<glyph unicode="&#xb6;" horiz-adv-x="1228" d="M135 1061q0 98 33 173t93.5 126t144 76.5t186.5 25.5h383v-1747h-78v1678h-264v-1678h-78v944q-88 0 -165 26t-133 77t-89 126t-33 173zM221 1061q0 -80 25.5 -141.5t70.5 -104.5t105.5 -64.5t132.5 -21.5v664q-72 0 -132.5 -21.5t-105.5 -64.5t-70.5 -104.5 t-25.5 -141.5z" />
<glyph unicode="&#xb7;" horiz-adv-x="491" d="M141 676q0 43 31 73.5t74 30.5t73.5 -30.5t30.5 -73.5t-30.5 -74t-73.5 -31t-74 31t-31 74z" />
<glyph unicode="&#xb8;" horiz-adv-x="303" d="M-27 -365l19 46q29 -14 74 -23.5t84 -9.5q59 0 94 23.5t35 76.5q0 47 -32 67.5t-79 20.5q-35 0 -62.5 -9t-46.5 -20l-20 25l111 168h61l-86 -121l4 -4q31 10 78 10q55 0 98 -36.5t43 -98.5q0 -25 -11 -51.5t-36 -49t-63.5 -36.5t-92.5 -14q-55 0 -98 10t-74 26z" />
<glyph unicode="&#xb9;" horiz-adv-x="641" d="M94 1249v62q37 2 74 15t69.5 32.5t56 43t34.5 48.5h61v-877h-70v779q-33 -35 -96 -67t-129 -36z" />
<glyph unicode="&#xba;" horiz-adv-x="641" d="M82 1112q0 72 10 134.5t37 107.5t73 70.5t120 25.5q72 0 117.5 -25.5t72.5 -70.5t37 -107.5t10 -134.5q0 -74 -10 -135.5t-37 -107.5t-73 -71.5t-117 -25.5q-74 0 -120 25.5t-73 71.5t-37 107.5t-10 135.5zM152 1112q0 -129 36.5 -203.5t131 -74.5t132 74.5t37.5 203.5 t-37.5 203t-132 74t-131 -74t-36.5 -203z" />
<glyph unicode="&#xbb;" horiz-adv-x="681" d="M106 238v102l173 221l-173 213v103l234 -277v-78zM342 238v102l172 221l-172 213v103l233 -277v-78z" />
<glyph unicode="&#xbc;" horiz-adv-x="1476" d="M59 1249v62q37 2 74 15t70 32.5t56.5 43t33.5 48.5h61v-877h-69v779q-33 -35 -96.5 -67t-129.5 -36zM197 -66l940 1557h69l-940 -1557h-69zM831 221v72l379 584h86v-594h121v-62h-121v-221h-69v221h-396zM901 283h326v495h-4z" />
<glyph unicode="&#xbd;" horiz-adv-x="1476" d="M59 1249v62q37 2 74 15t70 32.5t56.5 43t33.5 48.5h61v-877h-69v779q-33 -35 -96.5 -67t-129.5 -36zM174 -66l940 1557h70l-940 -1557h-70zM899 0v31q0 68 32 141.5t122 138.5l139 101q72 53 114 104t42 121q0 86 -48.5 132t-130.5 46q-59 0 -97 -17.5t-61.5 -47 t-32.5 -66.5t-9 -74h-70q0 113 65.5 190t202.5 77q41 0 85 -10.5t81 -36t60.5 -68.5t23.5 -109q0 -53 -12 -93t-35.5 -72.5t-56.5 -60.5t-74 -58l-154 -113q-76 -55 -96 -107.5t-20 -87.5h448v-61h-518z" />
<glyph unicode="&#xbe;" horiz-adv-x="1476" d="M51 803h70q0 -31 11 -63.5t34.5 -59.5t60.5 -43t86 -16q39 0 76 12t65.5 36.5t47 61.5t18.5 88q0 86 -53 132t-164 46h-35v62h35q88 0 137 46t49 124q0 74 -45 117t-125 43q-49 0 -82.5 -15.5t-55 -41t-32 -56.5t-10.5 -62h-69q0 104 65.5 170t194.5 66 q100 0 164.5 -55.5t64.5 -161.5q0 -72 -39 -129t-121 -70v-6q98 -12 144.5 -66.5t46.5 -140.5q0 -117 -69.5 -189.5t-201.5 -72.5q-74 0 -124 19.5t-82.5 53.5t-47 78t-14.5 93zM268 -66l940 1557h70l-940 -1557h-70zM831 221v72l379 584h86v-594h121v-62h-121v-221h-69v221 h-396zM901 283h326v495h-4z" />
<glyph unicode="&#xbf;" d="M72 -41q0 92 25.5 155.5t62.5 111.5t82 87t81.5 83t62.5 98.5t26 134.5v106h86v-102q0 -86 -26 -147.5t-62.5 -109.5t-81.5 -88t-82 -86t-62.5 -102.5t-25.5 -136.5q0 -129 72.5 -199.5t195.5 -70.5q82 0 138.5 30.5t89 80t47 111.5t14.5 126v27h86v-33 q0 -68 -18.5 -140.5t-62.5 -133t-116 -99.5t-176 -39q-102 0 -170 32t-110 81t-59 108.5t-17 114.5zM412 913v197h86v-197h-86z" />
<glyph unicode="&#xc0;" horiz-adv-x="985" d="M-8 0l454 1462h109l438 -1462h-86l-139 455h-551l-139 -455h-86zM238 524h514l-252 852h-4zM287 1864h98l160 -287h-68z" />
<glyph unicode="&#xc1;" horiz-adv-x="985" d="M-8 0l454 1462h109l438 -1462h-86l-139 455h-551l-139 -455h-86zM238 524h514l-252 852h-4zM453 1577l159 287h99l-191 -287h-67z" />
<glyph unicode="&#xc2;" horiz-adv-x="985" d="M-8 0l454 1462h109l438 -1462h-86l-139 455h-551l-139 -455h-86zM238 524h514l-252 852h-4zM262 1577l193 287h86l192 -287h-86l-149 225l-150 -225h-86z" />
<glyph unicode="&#xc3;" horiz-adv-x="985" d="M-8 0l454 1462h109l438 -1462h-86l-139 455h-551l-139 -455h-86zM238 524h514l-252 852h-4zM246 1628q0 23 7 52.5t22.5 57t42 46t67.5 18.5h8q32 0 59 -14q30 -16 54 -37l50.5 -36.5t49.5 -16.5q25 0 40.5 12t23.5 30.5t11 38t3 33.5h61q0 -23 -7 -53t-22.5 -58 t-43 -46.5t-66.5 -18.5h-8q-32 0 -57 15q-29 16 -55.5 36.5t-50 37t-50.5 16.5q-25 0 -40 -12.5t-23.5 -30t-11.5 -37t-3 -33.5h-61z" />
<glyph unicode="&#xc4;" horiz-adv-x="985" d="M-8 0l454 1462h109l438 -1462h-86l-139 455h-551l-139 -455h-86zM238 524h514l-252 852h-4zM317 1616v209h86v-209h-86zM592 1616v209h86v-209h-86z" />
<glyph unicode="&#xc5;" horiz-adv-x="985" d="M-8 0l454 1462h109l438 -1462h-86l-139 455h-551l-139 -455h-86zM238 524h514l-252 852h-4zM319 1704q0 76 52.5 128t130.5 52t130 -52t52 -128t-52 -128t-130 -52t-130.5 52t-52.5 128zM381 1704q0 -51 35 -87t86 -36t86 36t35 87t-35 87t-86 36t-86 -36t-35 -87z" />
<glyph unicode="&#xc6;" horiz-adv-x="1441" d="M-8 0l629 1462h765v-78h-612v-583h572v-78h-572v-645h633v-78h-719v455h-414l-190 -455h-92zM303 524h385v860h-14z" />
<glyph unicode="&#xc7;" horiz-adv-x="1024" d="M78 729q0 172 25.5 312.5t82 238.5t145.5 152.5t216 54.5q129 0 209 -49t124 -119t60 -146.5t16 -130.5h-86q0 74 -19.5 141.5t-59 120t-100 83t-140.5 30.5q-109 0 -183.5 -49t-119.5 -138t-64.5 -216t-19.5 -281q0 -147 17.5 -273t59.5 -218t114.5 -144.5t183.5 -52.5 q106 0 173.5 53.5t106.5 127t54.5 148.5t15.5 118h86q0 -49 -10.5 -113t-37 -127.5t-69.5 -122.5t-110 -98q-80 -53 -205 -56l-68 -96l4 -4q31 10 78 10q55 0 98 -36.5t43 -98.5q0 -25 -11 -51.5t-35.5 -49t-63.5 -36.5t-92 -14q-55 0 -98.5 10t-73.5 26l18 46 q29 -14 74 -23.5t84 -9.5q59 0 94 23.5t35 76.5q0 47 -32 67.5t-79 20.5q-35 0 -62.5 -9t-45.5 -20l-21 25l94 145q-94 10 -164 50q-127 78 -184 256t-57 446z" />
<glyph unicode="&#xc8;" d="M125 0v1462h698v-78h-612v-583h571v-78h-571v-645h631v-78h-717zM281 1864h98l160 -287h-68z" />
<glyph unicode="&#xc9;" d="M125 0v1462h698v-78h-612v-583h571v-78h-571v-645h631v-78h-717zM426 1577l160 287h98l-190 -287h-68z" />
<glyph unicode="&#xca;" d="M125 0v1462h698v-78h-612v-583h571v-78h-571v-645h631v-78h-717zM240 1577l192 287h86l193 -287h-86l-150 225l-149 -225h-86z" />
<glyph unicode="&#xcb;" d="M125 0v1462h698v-78h-612v-583h571v-78h-571v-645h631v-78h-717zM297 1616v209h86v-209h-86zM571 1616v209h86v-209h-86z" />
<glyph unicode="&#xcc;" horiz-adv-x="335" d="M-45 1864h98l160 -287h-68zM125 0v1462h86v-1462h-86z" />
<glyph unicode="&#xcd;" horiz-adv-x="335" d="M125 0v1462h86v-1462h-86zM125 1577l160 287h98l-190 -287h-68z" />
<glyph unicode="&#xce;" horiz-adv-x="335" d="M-70 1577l193 287h86l192 -287h-86l-149 225l-150 -225h-86zM125 0v1462h86v-1462h-86z" />
<glyph unicode="&#xcf;" horiz-adv-x="335" d="M-12 1616v209h86v-209h-86zM125 0v1462h86v-1462h-86zM262 1616v209h86v-209h-86z" />
<glyph unicode="&#xd0;" horiz-adv-x="1062" d="M2 727v74h123v661h334q117 0 213 -29.5t165.5 -110.5t108.5 -223.5t39 -367.5t-43 -367.5t-115.5 -223.5t-168 -110.5t-199.5 -29.5h-334v727h-123zM211 727v-657h248q233 0 336.5 162.5t103.5 498.5q0 168 -21.5 293t-72.5 207t-136 122t-210 40h-248v-592h369v-74h-369 z" />
<glyph unicode="&#xd1;" horiz-adv-x="1062" d="M111 0v1462h114l637 -1327h4v1327h86v-1462h-112l-639 1327h-4v-1327h-86zM293 1628q0 23 7 52.5t22.5 57t42 46t67.5 18.5h8q32 0 59 -14q30 -16 54 -37l50.5 -36.5t49.5 -16.5q25 0 40.5 12t23.5 30.5t11 38t3 33.5h62q0 -23 -7.5 -53t-22.5 -58t-43 -46.5t-67 -18.5 h-8q-32 0 -57 15q-29 16 -55.5 36.5t-50 37t-50.5 16.5q-25 0 -40 -12.5t-23.5 -30t-11.5 -37t-3 -33.5h-61z" />
<glyph unicode="&#xd2;" horiz-adv-x="1099" d="M78 731q0 213 36 357.5t99 233.5t149.5 127t188.5 38q109 0 196 -38t148 -127t94 -233.5t33 -357.5q0 -240 -44 -388t-113.5 -230t-152.5 -110t-161 -28q-104 0 -191.5 38t-150 127t-97 233.5t-34.5 357.5zM164 731q0 -152 17.5 -277.5t61.5 -216t118.5 -141.5t189.5 -51 q205 0 295 167t90 519q0 147 -18.5 273t-62.5 218.5t-118.5 143.5t-185.5 51q-109 0 -182.5 -51t-118.5 -141t-65.5 -217t-20.5 -277zM358 1864h99l159 -287h-67z" />
<glyph unicode="&#xd3;" horiz-adv-x="1099" d="M78 731q0 213 36 357.5t99 233.5t149.5 127t188.5 38q109 0 196 -38t148 -127t94 -233.5t33 -357.5q0 -240 -44 -388t-113.5 -230t-152.5 -110t-161 -28q-104 0 -191.5 38t-150 127t-97 233.5t-34.5 357.5zM164 731q0 -152 17.5 -277.5t61.5 -216t118.5 -141.5t189.5 -51 q205 0 295 167t90 519q0 147 -18.5 273t-62.5 218.5t-118.5 143.5t-185.5 51q-109 0 -182.5 -51t-118.5 -141t-65.5 -217t-20.5 -277zM510 1577l160 287h98l-190 -287h-68z" />
<glyph unicode="&#xd4;" horiz-adv-x="1099" d="M78 731q0 213 36 357.5t99 233.5t149.5 127t188.5 38q109 0 196 -38t148 -127t94 -233.5t33 -357.5q0 -240 -44 -388t-113.5 -230t-152.5 -110t-161 -28q-104 0 -191.5 38t-150 127t-97 233.5t-34.5 357.5zM164 731q0 -152 17.5 -277.5t61.5 -216t118.5 -141.5t189.5 -51 q205 0 295 167t90 519q0 147 -18.5 273t-62.5 218.5t-118.5 143.5t-185.5 51q-109 0 -182.5 -51t-118.5 -141t-65.5 -217t-20.5 -277zM315 1577l193 287h86l192 -287h-86l-149 225l-150 -225h-86z" />
<glyph unicode="&#xd5;" horiz-adv-x="1099" d="M78 731q0 213 36 357.5t99 233.5t149.5 127t188.5 38q109 0 196 -38t148 -127t94 -233.5t33 -357.5q0 -240 -44 -388t-113.5 -230t-152.5 -110t-161 -28q-104 0 -191.5 38t-150 127t-97 233.5t-34.5 357.5zM164 731q0 -152 17.5 -277.5t61.5 -216t118.5 -141.5t189.5 -51 q205 0 295 167t90 519q0 147 -18.5 273t-62.5 218.5t-118.5 143.5t-185.5 51q-109 0 -182.5 -51t-118.5 -141t-65.5 -217t-20.5 -277zM305 1628q0 23 7 52.5t22.5 57t42 46t67.5 18.5h9q32 0 58 -14q30 -16 54 -37l50.5 -36.5t50.5 -16.5q25 0 40 12t23 30.5t11 38t3 33.5 h62q0 -23 -7 -53t-22.5 -58t-43 -46.5t-66.5 -18.5h-8q-32 0 -58 15q-29 16 -55.5 36.5t-50 37t-50.5 16.5q-25 0 -40 -12.5t-23 -30t-11 -37t-3 -33.5h-62z" />
<glyph unicode="&#xd6;" horiz-adv-x="1099" d="M78 731q0 213 36 357.5t99 233.5t149.5 127t188.5 38q109 0 196 -38t148 -127t94 -233.5t33 -357.5q0 -240 -44 -388t-113.5 -230t-152.5 -110t-161 -28q-104 0 -191.5 38t-150 127t-97 233.5t-34.5 357.5zM164 731q0 -152 17.5 -277.5t61.5 -216t118.5 -141.5t189.5 -51 q205 0 295 167t90 519q0 147 -18.5 273t-62.5 218.5t-118.5 143.5t-185.5 51q-109 0 -182.5 -51t-118.5 -141t-65.5 -217t-20.5 -277zM371 1616v209h86v-209h-86zM645 1616v209h86v-209h-86z" />
<glyph unicode="&#xd7;" horiz-adv-x="1228" d="M168 117l403 401l-403 404l43 43l403 -404l404 404l43 -43l-404 -404l404 -401l-43 -45l-404 403l-403 -403z" />
<glyph unicode="&#xd8;" horiz-adv-x="1099" d="M78 731q0 213 36 357.5t99 233.5t149.5 127t188.5 38q70 0 130 -14.5t110 -49.5l57 140l67 -25l-65 -162q86 -86 129 -239.5t43 -405.5q0 -240 -44 -388t-113.5 -230t-152.5 -110t-161 -28q-70 0 -130.5 16.5t-111.5 51.5l-61 -152l-68 25l72 176q-86 86 -130 238.5 t-44 400.5zM164 731q0 -184 25.5 -326.5t95.5 -234.5l475 1178q-82 70 -209 69q-109 0 -182.5 -51t-118.5 -141t-65.5 -217t-20.5 -277zM338 115q82 -70 213 -70q205 0 295 167t90 519q0 180 -27.5 324.5t-93.5 232.5z" />
<glyph unicode="&#xd9;" horiz-adv-x="1024" d="M106 403v1059h87v-1075q0 -154 74.5 -248t244.5 -94q160 0 239.5 94t79.5 248v1075h87v-1059q0 -123 -35 -205.5t-92.5 -132t-130 -70t-148.5 -20.5t-148.5 17.5t-130 65.5t-92.5 131t-35 214zM324 1864h98l160 -287h-68z" />
<glyph unicode="&#xda;" horiz-adv-x="1024" d="M106 403v1059h87v-1075q0 -154 74.5 -248t244.5 -94q160 0 239.5 94t79.5 248v1075h87v-1059q0 -123 -35 -205.5t-92.5 -132t-130 -70t-148.5 -20.5t-148.5 17.5t-130 65.5t-92.5 131t-35 214zM473 1577l160 287h98l-190 -287h-68z" />
<glyph unicode="&#xdb;" horiz-adv-x="1024" d="M106 403v1059h87v-1075q0 -154 74.5 -248t244.5 -94q160 0 239.5 94t79.5 248v1075h87v-1059q0 -123 -35 -205.5t-92.5 -132t-130 -70t-148.5 -20.5t-148.5 17.5t-130 65.5t-92.5 131t-35 214zM276 1577l193 287h86l193 -287h-86l-150 225l-150 -225h-86z" />
<glyph unicode="&#xdc;" horiz-adv-x="1024" d="M106 403v1059h87v-1075q0 -154 74.5 -248t244.5 -94q160 0 239.5 94t79.5 248v1075h87v-1059q0 -123 -35 -205.5t-92.5 -132t-130 -70t-148.5 -20.5t-148.5 17.5t-130 65.5t-92.5 131t-35 214zM336 1616v209h86v-209h-86zM610 1616v209h86v-209h-86z" />
<glyph unicode="&#xdd;" horiz-adv-x="909" d="M12 1462h94l349 -770l356 770h86l-399 -860v-602h-86v602zM418 1577l160 287h98l-191 -287h-67z" />
<glyph unicode="&#xde;" horiz-adv-x="948" d="M125 0v1462h86v-286h293q129 -2 206.5 -44t119.5 -102.5t56.5 -131.5t14.5 -128q0 -186 -108.5 -295.5t-307.5 -109.5h-274v-365h-86zM211 434h283q66 0 124 18.5t102 58.5t69.5 104.5t25.5 154.5q0 160 -80 248t-229 88h-295v-672z" />
<glyph unicode="&#xdf;" d="M104 0v1106q0 174 86 265t246 91q147 0 227 -89t80 -236q0 -104 -48 -183.5t-158 -109.5v-4q123 -16 200.5 -111.5t77.5 -279.5q0 -102 -22.5 -186.5t-72.5 -145t-132 -94t-201 -35.5h-45v69h45q174 0 258 90.5t84 298.5q0 180 -79 266.5t-247 86.5h-51v69h54 q49 0 94 13.5t79.5 44t56 83t21.5 132.5q0 106 -56 179t-173 73q-55 0 -100 -15.5t-77 -49.5t-50.5 -89t-18.5 -135v-1104h-78z" />
<glyph unicode="&#xe0;" horiz-adv-x="796" d="M49 274q0 123 50.5 194t166.5 101l232 64q70 18 87 54t17 104q0 74 -16.5 118.5t-44 71.5t-65.5 36t-81 9q-68 0 -112.5 -19.5t-71.5 -55.5t-38 -83t-11 -102h-78q0 55 12.5 113.5t46 106.5t92 79t152.5 31q88 0 145.5 -22.5t90 -61.5t45 -90.5t12.5 -108.5v-684 q0 -39 13.5 -55.5t33.5 -16.5q29 0 49 11v-62q-25 -18 -82 -18q-25 0 -58.5 26.5t-33.5 89.5v68h-4q-23 -86 -96.5 -141.5t-184.5 -55.5q-72 0 -122 24t-82.5 63.5t-48 95t-15.5 116.5zM135 274q0 -104 46 -166.5t151 -62.5q137 0 203.5 98.5t66.5 259.5v222h-4 q-20 -33 -48 -44.5t-87 -27.5l-158 -43q-94 -27 -132 -82.5t-38 -153.5zM199 1507h98l160 -286h-68z" />
<glyph unicode="&#xe1;" horiz-adv-x="796" d="M49 274q0 123 50.5 194t166.5 101l232 64q70 18 87 54t17 104q0 74 -16.5 118.5t-44 71.5t-65.5 36t-81 9q-68 0 -112.5 -19.5t-71.5 -55.5t-38 -83t-11 -102h-78q0 55 12.5 113.5t46 106.5t92 79t152.5 31q88 0 145.5 -22.5t90 -61.5t45 -90.5t12.5 -108.5v-684 q0 -39 13.5 -55.5t33.5 -16.5q29 0 49 11v-62q-25 -18 -82 -18q-25 0 -58.5 26.5t-33.5 89.5v68h-4q-23 -86 -96.5 -141.5t-184.5 -55.5q-72 0 -122 24t-82.5 63.5t-48 95t-15.5 116.5zM135 274q0 -104 46 -166.5t151 -62.5q137 0 203.5 98.5t66.5 259.5v222h-4 q-20 -33 -48 -44.5t-87 -27.5l-158 -43q-94 -27 -132 -82.5t-38 -153.5zM352 1221l160 286h98l-190 -286h-68z" />
<glyph unicode="&#xe2;" horiz-adv-x="796" d="M49 274q0 123 50.5 194t166.5 101l232 64q70 18 87 54t17 104q0 74 -16.5 118.5t-44 71.5t-65.5 36t-81 9q-68 0 -112.5 -19.5t-71.5 -55.5t-38 -83t-11 -102h-78q0 55 12.5 113.5t46 106.5t92 79t152.5 31q88 0 145.5 -22.5t90 -61.5t45 -90.5t12.5 -108.5v-684 q0 -39 13.5 -55.5t33.5 -16.5q29 0 49 11v-62q-25 -18 -82 -18q-25 0 -58.5 26.5t-33.5 89.5v68h-4q-23 -86 -96.5 -141.5t-184.5 -55.5q-72 0 -122 24t-82.5 63.5t-48 95t-15.5 116.5zM135 274q0 -104 46 -166.5t151 -62.5q137 0 203.5 98.5t66.5 259.5v222h-4 q-20 -33 -48 -44.5t-87 -27.5l-158 -43q-94 -27 -132 -82.5t-38 -153.5zM158 1221l192 286h86l193 -286h-86l-150 225l-149 -225h-86z" />
<glyph unicode="&#xe3;" horiz-adv-x="796" d="M49 274q0 123 50.5 194t166.5 101l232 64q70 18 87 54t17 104q0 74 -16.5 118.5t-44 71.5t-65.5 36t-81 9q-68 0 -112.5 -19.5t-71.5 -55.5t-38 -83t-11 -102h-78q0 55 12.5 113.5t46 106.5t92 79t152.5 31q88 0 145.5 -22.5t90 -61.5t45 -90.5t12.5 -108.5v-684 q0 -39 13.5 -55.5t33.5 -16.5q29 0 49 11v-62q-25 -18 -82 -18q-25 0 -58.5 26.5t-33.5 89.5v68h-4q-23 -86 -96.5 -141.5t-184.5 -55.5q-72 0 -122 24t-82.5 63.5t-48 95t-15.5 116.5zM135 274q0 -104 46 -166.5t151 -62.5q137 0 203.5 98.5t66.5 259.5v222h-4 q-20 -33 -48 -44.5t-87 -27.5l-158 -43q-94 -27 -132 -82.5t-38 -153.5zM145 1272q0 23 7.5 52.5t22.5 57t42 46t68 18.5h8q32 0 58 -14q30 -16 55 -37l50 -37t50 -17q25 0 40 12.5t23.5 31t11.5 38t3 33.5h61q0 -23 -7 -53.5t-22.5 -58t-43 -46t-66.5 -18.5h-8 q-32 0 -58 14q-29 16 -55.5 37t-50 37t-49.5 16q-25 0 -40.5 -12t-23.5 -29.5t-11 -37t-3 -33.5h-62z" />
<glyph unicode="&#xe4;" horiz-adv-x="796" d="M49 274q0 123 50.5 194t166.5 101l232 64q70 18 87 54t17 104q0 74 -16.5 118.5t-44 71.5t-65.5 36t-81 9q-68 0 -112.5 -19.5t-71.5 -55.5t-38 -83t-11 -102h-78q0 55 12.5 113.5t46 106.5t92 79t152.5 31q88 0 145.5 -22.5t90 -61.5t45 -90.5t12.5 -108.5v-684 q0 -39 13.5 -55.5t33.5 -16.5q29 0 49 11v-62q-25 -18 -82 -18q-25 0 -58.5 26.5t-33.5 89.5v68h-4q-23 -86 -96.5 -141.5t-184.5 -55.5q-72 0 -122 24t-82.5 63.5t-48 95t-15.5 116.5zM135 274q0 -104 46 -166.5t151 -62.5q137 0 203.5 98.5t66.5 259.5v222h-4 q-20 -33 -48 -44.5t-87 -27.5l-158 -43q-94 -27 -132 -82.5t-38 -153.5zM217 1260v208h86v-208h-86zM492 1260v208h86v-208h-86z" />
<glyph unicode="&#xe5;" horiz-adv-x="796" d="M49 274q0 123 50.5 194t166.5 101l232 64q70 18 87 54t17 104q0 74 -16.5 118.5t-44 71.5t-65.5 36t-81 9q-68 0 -112.5 -19.5t-71.5 -55.5t-38 -83t-11 -102h-78q0 55 12.5 113.5t46 106.5t92 79t152.5 31q88 0 145.5 -22.5t90 -61.5t45 -90.5t12.5 -108.5v-684 q0 -39 13.5 -55.5t33.5 -16.5q29 0 49 11v-62q-25 -18 -82 -18q-25 0 -58.5 26.5t-33.5 89.5v68h-4q-23 -86 -96.5 -141.5t-184.5 -55.5q-72 0 -122 24t-82.5 63.5t-48 95t-15.5 116.5zM135 274q0 -104 46 -166.5t151 -62.5q137 0 203.5 98.5t66.5 259.5v222h-4 q-20 -33 -48 -44.5t-87 -27.5l-158 -43q-94 -27 -132 -82.5t-38 -153.5zM215 1397q0 76 52 128t130 52t130.5 -52t52.5 -128t-52.5 -128t-130.5 -52t-130 52t-52 128zM276 1397q0 -51 35 -87t86.5 -36t86 36t34.5 87t-34.5 87t-86 36t-86.5 -36t-35 -87z" />
<glyph unicode="&#xe6;" horiz-adv-x="1253" d="M49 274q0 117 50.5 189t160.5 102l191 49q72 14 95 43t23 107v53q0 63 -15 104.5t-41 65t-59.5 31.5t-72.5 8q-76 0 -120 -29.5t-65.5 -71.5t-27.5 -86t-6 -73h-78q0 53 12.5 111.5t45 106.5t91 80t150.5 32q63 0 108.5 -17.5t75 -45t46 -59.5t22.5 -61h4q8 23 24.5 54.5 t44 60.5t67.5 48.5t95 19.5q94 0 159 -38t103.5 -109.5t55 -175t16.5 -232.5h-557v-60q0 -80 9.5 -157.5t35 -140t70.5 -100.5t117 -38q74 0 119.5 37t70.5 86t34 100t9 82h78q0 -61 -17.5 -127.5t-55.5 -121t-97 -90.5t-143 -36q-61 0 -107.5 24t-80.5 59.5t-54.5 79.5 t-28.5 87h-4q-10 -43 -30.5 -88t-54.5 -81t-83 -58.5t-117 -22.5q-72 0 -122 24t-82.5 63.5t-48 95t-15.5 116.5zM135 268q0 -100 46 -161.5t151 -61.5q113 0 175 90t62 238v219h-4q-35 -25 -125 -47l-135 -35q-92 -25 -131 -84.5t-39 -157.5zM647 610h471q0 88 -13 165 t-41 132.5t-72 87t-107 31.5q-66 0 -111 -31.5t-72.5 -87t-41 -132.5t-13.5 -165z" />
<glyph unicode="&#xe7;" horiz-adv-x="796" d="M78 541q0 266 86 410.5t274 144.5q98 0 158.5 -41t94.5 -96.5t46.5 -110.5t12.5 -84h-86q0 25 -9.5 69t-35 87t-69.5 74.5t-114 31.5q-150 0 -211 -128t-61 -361q0 -254 61.5 -373t210.5 -119q74 0 120 37t70.5 86t34 100t9.5 82h86q0 -29 -7.5 -71.5t-25.5 -91 t-50 -93.5t-81 -76q-57 -39 -152 -43l-67 -96l4 -4q31 10 78 10q55 0 98 -36.5t43 -98.5q0 -25 -11.5 -51.5t-36 -49t-63.5 -36.5t-92 -14q-55 0 -98 10t-74 26l19 46q29 -14 73.5 -23.5t83.5 -9.5q59 0 94 23.5t35 76.5q0 47 -31.5 67.5t-78.5 20.5q-35 0 -62.5 -9 t-46.5 -20l-20 25l94 145q-80 10 -129 41q-100 66 -137 203.5t-37 319.5z" />
<glyph unicode="&#xe8;" horiz-adv-x="833" d="M78 565q0 246 88 388.5t270 142.5q94 0 158.5 -38t103.5 -109.5t55.5 -175t16.5 -232.5h-606q0 -66 4 -151t27.5 -161.5t75 -130t145.5 -53.5q84 0 136 37t79.5 86t37 100t9.5 82h78q0 -61 -17.5 -127.5t-57.5 -121t-103.5 -90.5t-153.5 -36q-104 0 -171 41t-105.5 118 t-54 185.5t-15.5 245.5zM164 610h520q0 74 -8 147.5t-35 133t-77 97.5t-132 38q-90 0 -142 -45t-81 -110.5t-37 -137.5t-8 -123zM227 1507h99l159 -286h-67z" />
<glyph unicode="&#xe9;" horiz-adv-x="833" d="M78 565q0 246 88 388.5t270 142.5q94 0 158.5 -38t103.5 -109.5t55.5 -175t16.5 -232.5h-606q0 -66 4 -151t27.5 -161.5t75 -130t145.5 -53.5q84 0 136 37t79.5 86t37 100t9.5 82h78q0 -61 -17.5 -127.5t-57.5 -121t-103.5 -90.5t-153.5 -36q-104 0 -171 41t-105.5 118 t-54 185.5t-15.5 245.5zM164 610h520q0 74 -8 147.5t-35 133t-77 97.5t-132 38q-90 0 -142 -45t-81 -110.5t-37 -137.5t-8 -123zM397 1221l160 286h98l-190 -286h-68z" />
<glyph unicode="&#xea;" horiz-adv-x="833" d="M78 565q0 246 88 388.5t270 142.5q94 0 158.5 -38t103.5 -109.5t55.5 -175t16.5 -232.5h-606q0 -66 4 -151t27.5 -161.5t75 -130t145.5 -53.5q84 0 136 37t79.5 86t37 100t9.5 82h78q0 -61 -17.5 -127.5t-57.5 -121t-103.5 -90.5t-153.5 -36q-104 0 -171 41t-105.5 118 t-54 185.5t-15.5 245.5zM164 610h520q0 74 -8 147.5t-35 133t-77 97.5t-132 38q-90 0 -142 -45t-81 -110.5t-37 -137.5t-8 -123zM201 1221l192 286h86l193 -286h-86l-150 225l-149 -225h-86z" />
<glyph unicode="&#xeb;" horiz-adv-x="833" d="M78 565q0 246 88 388.5t270 142.5q94 0 158.5 -38t103.5 -109.5t55.5 -175t16.5 -232.5h-606q0 -66 4 -151t27.5 -161.5t75 -130t145.5 -53.5q84 0 136 37t79.5 86t37 100t9.5 82h78q0 -61 -17.5 -127.5t-57.5 -121t-103.5 -90.5t-153.5 -36q-104 0 -171 41t-105.5 118 t-54 185.5t-15.5 245.5zM164 610h520q0 74 -8 147.5t-35 133t-77 97.5t-132 38q-90 0 -142 -45t-81 -110.5t-37 -137.5t-8 -123zM254 1260v208h86v-208h-86zM528 1260v208h86v-208h-86z" />
<glyph unicode="&#xec;" horiz-adv-x="303" d="M-66 1507h99l160 -286h-68zM113 0v1071h77v-1071h-77z" />
<glyph unicode="&#xed;" horiz-adv-x="303" d="M111 1221l159 286h99l-191 -286h-67zM113 0v1071h77v-1071h-77z" />
<glyph unicode="&#xee;" horiz-adv-x="303" d="M-84 1221l193 286h86l192 -286h-86l-149 225l-150 -225h-86zM113 0v1071h77v-1071h-77z" />
<glyph unicode="&#xef;" horiz-adv-x="303" d="M-29 1260v208h86v-208h-86zM113 0v1071h77v-1071h-77zM246 1260v208h86v-208h-86z" />
<glyph unicode="&#xf0;" d="M78 534.5q0 118.5 15.5 221t55 178.5t110.5 119t179 43q61 0 110.5 -18.5t86.5 -49.5l4 4q-10 39 -31.5 85t-49.5 90t-57.5 84t-58.5 67l-161 -96l-54 53l162 96q-33 33 -79 64.5t-79 48.5l74 45q35 -16 77 -47t81 -68l164 98l53 -53l-166 -98q53 -57 103.5 -134 t90.5 -181.5t63.5 -240.5t23.5 -310q0 -119 -15.5 -221.5t-55.5 -177.5t-109.5 -118t-176.5 -43q-109 0 -179.5 43t-110 118t-55 177.5t-15.5 221zM164 537q0 -117 13 -208t46 -153.5t84 -96.5t129 -34q76 0 128 34t85 96.5t46.5 153.5t13.5 208q0 115 -13.5 206t-46.5 153 t-85 96t-128 34q-78 0 -129 -34t-84 -96t-46 -153t-13 -206z" />
<glyph unicode="&#xf1;" horiz-adv-x="833" d="M104 0v1071h78v-162h4q14 35 38 69t57.5 59.5t77.5 42t100 16.5q57 0 106 -16.5t86 -52.5t57.5 -90t20.5 -130v-807h-78v770q0 143 -56 199.5t-157 56.5q-61 0 -109 -26.5t-80 -72.5t-49.5 -108.5t-17.5 -132.5v-686h-78zM164 1272q0 23 7 52.5t22.5 57t42 46t67.5 18.5 h8q32 0 59 -14q30 -16 54 -37l50.5 -37t49.5 -17q25 0 40.5 12.5t23.5 31t11 38t3 33.5h62q0 -23 -7.5 -53.5t-23 -58t-43 -46t-66.5 -18.5h-8q-32 0 -57 14q-29 16 -55.5 37t-50 37t-50.5 16q-25 0 -40 -12t-23.5 -29.5t-11.5 -37t-3 -33.5h-61z" />
<glyph unicode="&#xf2;" d="M78 537q0 115 15.5 217t56 178t111.5 120t181 44q106 0 174 -44t108 -120t55.5 -178.5t15.5 -216.5q0 -117 -15.5 -218.5t-56.5 -178.5t-111.5 -121t-181.5 -44q-106 0 -174 44t-107.5 121t-55 178.5t-15.5 218.5zM164 535q0 -115 13 -206t46 -154.5t84 -96.5t129 -33 q76 0 128 33t85 96.5t46.5 154.5t13.5 206q0 117 -13.5 208t-46.5 153t-85 96t-128 34q-78 0 -129 -34t-84 -96t-46 -153t-13 -208zM244 1507h98l160 -286h-68z" />
<glyph unicode="&#xf3;" d="M78 537q0 115 15.5 217t56 178t111.5 120t181 44q106 0 174 -44t108 -120t55.5 -178.5t15.5 -216.5q0 -117 -15.5 -218.5t-56.5 -178.5t-111.5 -121t-181.5 -44q-106 0 -174 44t-107.5 121t-55 178.5t-15.5 218.5zM164 535q0 -115 13 -206t46 -154.5t84 -96.5t129 -33 q76 0 128 33t85 96.5t46.5 154.5t13.5 206q0 117 -13.5 208t-46.5 153t-85 96t-128 34q-78 0 -129 -34t-84 -96t-46 -153t-13 -208zM401 1221l160 286h98l-190 -286h-68z" />
<glyph unicode="&#xf4;" d="M78 537q0 115 15.5 217t56 178t111.5 120t181 44q106 0 174 -44t108 -120t55.5 -178.5t15.5 -216.5q0 -117 -15.5 -218.5t-56.5 -178.5t-111.5 -121t-181.5 -44q-106 0 -174 44t-107.5 121t-55 178.5t-15.5 218.5zM164 535q0 -115 13 -206t46 -154.5t84 -96.5t129 -33 q76 0 128 33t85 96.5t46.5 154.5t13.5 206q0 117 -13.5 208t-46.5 153t-85 96t-128 34q-78 0 -129 -34t-84 -96t-46 -153t-13 -208zM205 1221l192 286h86l193 -286h-86l-150 225l-149 -225h-86z" />
<glyph unicode="&#xf5;" d="M78 537q0 115 15.5 217t56 178t111.5 120t181 44q106 0 174 -44t108 -120t55.5 -178.5t15.5 -216.5q0 -117 -15.5 -218.5t-56.5 -178.5t-111.5 -121t-181.5 -44q-106 0 -174 44t-107.5 121t-55 178.5t-15.5 218.5zM164 535q0 -115 13 -206t46 -154.5t84 -96.5t129 -33 q76 0 128 33t85 96.5t46.5 154.5t13.5 206q0 117 -13.5 208t-46.5 153t-85 96t-128 34q-78 0 -129 -34t-84 -96t-46 -153t-13 -208zM190 1272q0 23 7.5 52.5t23 57t42 46t67.5 18.5h8q32 0 58 -14q30 -16 55 -37l50 -37t50 -17q25 0 40 12.5t23.5 31t11.5 38t3 33.5h61 q0 -23 -7 -53.5t-22.5 -58t-43 -46t-66.5 -18.5h-8q-32 0 -58 14q-29 16 -55.5 37t-50 37t-49.5 16q-25 0 -40.5 -12t-23.5 -29.5t-11 -37t-3 -33.5h-62z" />
<glyph unicode="&#xf6;" d="M78 537q0 115 15.5 217t56 178t111.5 120t181 44q106 0 174 -44t108 -120t55.5 -178.5t15.5 -216.5q0 -117 -15.5 -218.5t-56.5 -178.5t-111.5 -121t-181.5 -44q-106 0 -174 44t-107.5 121t-55 178.5t-15.5 218.5zM164 535q0 -115 13 -206t46 -154.5t84 -96.5t129 -33 q76 0 128 33t85 96.5t46.5 154.5t13.5 206q0 117 -13.5 208t-46.5 153t-85 96t-128 34q-78 0 -129 -34t-84 -96t-46 -153t-13 -208zM260 1260v208h86v-208h-86zM535 1260v208h86v-208h-86z" />
<glyph unicode="&#xf7;" horiz-adv-x="1228" d="M96 483v70h1037v-70h-1037zM510 104q0 43 30.5 74t73.5 31t74 -31t31 -74t-31 -73.5t-74 -30.5t-73.5 30.5t-30.5 73.5zM510 932q0 43 30.5 73.5t73.5 30.5t74 -30.5t31 -73.5t-31 -74t-74 -31t-73.5 31t-30.5 74z" />
<glyph unicode="&#xf8;" d="M78 537q0 115 15.5 217t56 178t111.5 120t181 44q106 0 172 -45l52 123l57 -21l-57 -141q76 -74 102.5 -198t26.5 -277q0 -117 -15.5 -218.5t-56.5 -178.5t-111.5 -121t-181.5 -44q-102 0 -172 45l-53 -129l-58 21l60 147q-76 74 -102.5 199t-26.5 279zM164 535 q0 -129 17.5 -227.5t60.5 -162.5l342 832q-59 49 -148 49q-78 0 -129 -34t-84 -96t-46 -153t-13 -208zM289 94q55 -49 147 -49q76 0 128 33t85 96.5t46.5 154.5t13.5 206q0 131 -17.5 229t-60.5 162z" />
<glyph unicode="&#xf9;" horiz-adv-x="833" d="M104 264v807h78v-770q0 -143 56.5 -199.5t156.5 -56.5q61 0 109.5 26.5t80 72.5t49 107.5t17.5 133.5v686h78v-1071h-78v162h-4q-14 -35 -37.5 -69t-57.5 -60.5t-78 -42t-99 -15.5q-57 0 -106.5 16.5t-86.5 52.5t-57.5 90t-20.5 130zM225 1507h99l159 -286h-67z" />
<glyph unicode="&#xfa;" horiz-adv-x="833" d="M104 264v807h78v-770q0 -143 56.5 -199.5t156.5 -56.5q61 0 109.5 26.5t80 72.5t49 107.5t17.5 133.5v686h78v-1071h-78v162h-4q-14 -35 -37.5 -69t-57.5 -60.5t-78 -42t-99 -15.5q-57 0 -106.5 16.5t-86.5 52.5t-57.5 90t-20.5 130zM379 1221l160 286h98l-191 -286h-67z " />
<glyph unicode="&#xfb;" horiz-adv-x="833" d="M104 264v807h78v-770q0 -143 56.5 -199.5t156.5 -56.5q61 0 109.5 26.5t80 72.5t49 107.5t17.5 133.5v686h78v-1071h-78v162h-4q-14 -35 -37.5 -69t-57.5 -60.5t-78 -42t-99 -15.5q-57 0 -106.5 16.5t-86.5 52.5t-57.5 90t-20.5 130zM182 1221l193 286h86l192 -286h-86 l-149 225l-150 -225h-86z" />
<glyph unicode="&#xfc;" horiz-adv-x="833" d="M104 264v807h78v-770q0 -143 56.5 -199.5t156.5 -56.5q61 0 109.5 26.5t80 72.5t49 107.5t17.5 133.5v686h78v-1071h-78v162h-4q-14 -35 -37.5 -69t-57.5 -60.5t-78 -42t-99 -15.5q-57 0 -106.5 16.5t-86.5 52.5t-57.5 90t-20.5 130zM238 1260v208h86v-208h-86zM512 1260 v208h86v-208h-86z" />
<glyph unicode="&#xfd;" horiz-adv-x="720" d="M18 1071h86l271 -960h4l237 960h86l-292 -1083l-39 -148q-31 -111 -87.5 -155.5t-150.5 -44.5q-20 0 -39.5 1t-40.5 3v69q23 -2 36 -3t32 -1q37 0 64.5 6t48 24.5t37 51.5t30.5 86l33 113zM338 1221l160 286h98l-190 -286h-68z" />
<glyph unicode="&#xfe;" d="M109 -360v1822h77v-579h4q14 43 36 82t53.5 67.5t77.5 46t108 17.5q94 0 157.5 -43t102.5 -118t54.5 -177.5t15.5 -218.5q0 -125 -17.5 -228.5t-56.5 -178.5t-102.5 -116t-157.5 -41q-113 0 -181.5 60.5t-89.5 171.5h-4v-567h-77zM186 539q0 -236 59.5 -365t203.5 -129 q80 0 130 39t78.5 105.5t40 156.5t11.5 193q0 258 -69 372.5t-177 114.5q-147 0 -212 -119.5t-65 -367.5z" />
<glyph unicode="&#xff;" horiz-adv-x="720" d="M18 1071h86l271 -960h4l237 960h86l-292 -1083l-39 -148q-31 -111 -87.5 -155.5t-150.5 -44.5q-20 0 -39.5 1t-40.5 3v69q23 -2 36 -3t32 -1q37 0 64.5 6t48 24.5t37 51.5t30.5 86l33 113zM195 1260v208h86v-208h-86zM469 1260v208h86v-208h-86z" />
<glyph unicode="&#x152;" horiz-adv-x="1593" d="M102 731q0 174 24 314.5t78 238.5t140 150.5t211 52.5q80 0 135 -18.5t89 -41t51.5 -45t21.5 -30.5h4v110h670v-78h-584v-583h541v-78h-541v-645h610v-78h-696v123h-4q-43 -86 -118 -117t-179 -31q-125 0 -211 52.5t-140 150.5t-78 237.5t-24 315.5zM188 731 q0 -160 19.5 -288t64.5 -216t118 -135t179 -47q150 0 218.5 76t68.5 237v746q0 162 -68.5 237.5t-218.5 75.5q-106 0 -179 -47t-118 -135t-64.5 -216t-19.5 -288z" />
<glyph unicode="&#x153;" horiz-adv-x="1402" d="M78 534.5q0 118.5 18.5 221t61.5 178.5t111.5 119t166.5 43q68 0 118 -22.5t86 -59.5t56.5 -86t26.5 -101h4q8 51 29.5 100.5t56.5 86.5t83 59.5t110 22.5q172 0 245.5 -147.5t73.5 -407.5h-557v-60q0 -80 9 -157.5t35 -140t71 -100.5t116 -38q74 0 120 37t70.5 86 t34 100t9.5 82h78q0 -61 -17.5 -127.5t-55.5 -121t-97.5 -90.5t-143.5 -36q-61 0 -108 22.5t-81 59.5t-54.5 86.5t-26.5 102.5h-4q-4 -53 -23.5 -102.5t-55.5 -86.5t-88 -59.5t-120 -22.5q-106 0 -176 43t-109.5 118t-56 177.5t-16.5 221zM164 537q0 -117 13 -208t46 -153.5 t84 -96.5t129 -34t127 34t78 97.5t39 154.5t10 206q0 113 -10 203.5t-39 154t-78 97.5t-127 34q-145 0 -208.5 -130t-63.5 -359zM768 610h471q0 88 -13.5 165t-41 132.5t-71.5 87t-107 31.5q-66 0 -111 -31.5t-72.5 -87t-41 -132.5t-13.5 -165z" />
<glyph unicode="&#x178;" horiz-adv-x="909" d="M12 1462h94l349 -770l356 770h86l-399 -860v-602h-86v602zM276 1616v209h86v-209h-86zM551 1616v209h86v-209h-86z" />
<glyph unicode="&#x2c6;" horiz-adv-x="303" d="M-84 1221l193 286h86l192 -286h-86l-149 225l-150 -225h-86z" />
<glyph unicode="&#x2dc;" horiz-adv-x="303" d="M-98 1272q0 23 7 52.5t22.5 57t42 46t67.5 18.5h8q32 0 59 -14q30 -16 54 -37l50.5 -37t49.5 -17q25 0 40 12.5t23.5 31t11.5 38t3 33.5h61q0 -23 -7 -53.5t-22.5 -58t-43 -46t-66.5 -18.5h-8q-32 0 -57 14q-29 16 -55.5 37t-50 37t-50.5 16q-25 0 -40 -12t-23.5 -29.5 t-11.5 -37t-3 -33.5h-61z" />
<glyph unicode="&#x2013;" horiz-adv-x="1024" d="M0 522v70h1024v-70h-1024z" />
<glyph unicode="&#x2014;" horiz-adv-x="2048" d="M0 522v70h2048v-70h-2048z" />
<glyph unicode="&#x2018;" horiz-adv-x="376" d="M137 991v205q0 59 7.5 101t21.5 73t36.5 52.5t53.5 39.5v-69q-39 -29 -48 -77t-9 -116h24v-209h-86z" />
<glyph unicode="&#x2019;" horiz-adv-x="376" d="M121 991v70q39 29 48 77t9 115h-24v209h86v-205q0 -61 -7.5 -103t-21.5 -71.5t-36.5 -51.5t-53.5 -40z" />
<glyph unicode="&#x201a;" horiz-adv-x="376" d="M121 -193q39 29 48 77t9 116h-24v209h86v-205q0 -61 -7.5 -103t-21.5 -72t-36.5 -51.5t-53.5 -39.5v69z" />
<glyph unicode="&#x201c;" horiz-adv-x="606" d="M137 991v205q0 59 7.5 101t21.5 73t36.5 52.5t53.5 39.5v-69q-39 -29 -48 -77t-9 -116h24v-209h-86zM367 991v205q0 59 7 101t21.5 73t37 52.5t52.5 39.5v-69q-39 -29 -48 -77t-9 -116h25v-209h-86z" />
<glyph unicode="&#x201d;" horiz-adv-x="606" d="M121 991v70q39 29 48 77t9 115h-24v209h86v-205q0 -61 -7.5 -103t-21.5 -71.5t-36.5 -51.5t-53.5 -40zM350 991v70q39 29 48.5 77t9.5 115h-25v209h86v-205q0 -61 -7 -103t-21.5 -71.5t-37 -51.5t-53.5 -40z" />
<glyph unicode="&#x201e;" horiz-adv-x="606" d="M121 -193q39 29 48 77t9 116h-24v209h86v-205q0 -61 -7.5 -103t-21.5 -72t-36.5 -51.5t-53.5 -39.5v69zM350 -193q39 29 48.5 77t9.5 116h-25v209h86v-205q0 -61 -7 -103t-21.5 -72t-37 -51.5t-53.5 -39.5v69z" />
<glyph unicode="&#x2022;" horiz-adv-x="1024" d="M147 731q0 76 29 142.5t78 115.5t115.5 78t142.5 29t142.5 -29t115.5 -78t78 -115.5t29 -142.5t-29 -142.5t-78 -115.5t-115.5 -77.5t-142.5 -28.5t-142.5 28.5t-115.5 77.5t-78 115.5t-29 142.5z" />
<glyph unicode="&#x2026;" horiz-adv-x="2048" d="M299 0v209h86v-209h-86zM981 0v209h86v-209h-86zM1663 0v209h86v-209h-86z" />
<glyph unicode="&#x2039;" horiz-adv-x="454" d="M111 514v78l233 285v-103l-172 -221l172 -213v-102z" />
<glyph unicode="&#x203a;" horiz-adv-x="454" d="M111 238v102l172 221l-172 213v103l233 -277v-78z" />
<glyph unicode="&#x20ac;" horiz-adv-x="983" d="M8 561l29 70h125q-1 40 -1 82t1 86h-154l29 69h129q8 143 43 265t115 208q68 70 142.5 89.5t151.5 19.5q57 0 125 -10t127 -51q72 -47 113 -123l-41 -90q-23 53 -54.5 90t-64.5 59q-53 35 -106 45t-94 10q-66 0 -126.5 -17t-113.5 -71q-37 -39 -61.5 -91t-39 -109.5 t-21.5 -116t-9 -107.5h571l-28 -69h-547q-2 -42 -2 -84t2 -84h481l-29 -70h-450q8 -188 52 -287.5t97 -146.5q47 -45 103.5 -63.5t126.5 -18.5q51 0 98 11.5t94 39.5q55 33 89 71t53 71v-123q-57 -63 -129 -95q-61 -29 -122 -37t-94 -8q-80 0 -148.5 17.5t-133.5 79.5 q-23 18 -51.5 54t-54 94.5t-45 141t-21.5 199.5h-156z" />
<glyph unicode="&#x2122;" horiz-adv-x="2048" d="M127 1393v69h651v-69h-291v-775h-69v775h-291zM946 618v844h119l311 -712l316 712h114v-844h-69v775h-4l-338 -775h-37l-338 775h-4v-775h-70z" />
<glyph unicode="&#xe000;" horiz-adv-x="1070" d="M0 1070h1070v-1070h-1070v1070z" />
<glyph unicode="&#xfb01;" horiz-adv-x="757" d="M16 1001v70h146v178q0 45 9 85t30.5 68t58.5 44t90 16q18 0 39 -1t41 -5v-70q-29 6 -68 7q-51 0 -86.5 -29t-35.5 -111v-182h178v-70h-178v-1001h-78v1001h-146zM569 0v1071h78v-1071h-78zM569 1253v209h78v-209h-78z" />
<glyph unicode="&#xfb02;" horiz-adv-x="757" d="M16 1001v70h146v178q0 45 9 85t30.5 68t58.5 44t90 16q18 0 39 -1t41 -5v-70q-29 6 -68 7q-51 0 -86.5 -29t-35.5 -111v-182h178v-70h-178v-1001h-78v1001h-146zM567 0v1462h78v-1462h-78z" />
<glyph unicode="&#xfb03;" horiz-adv-x="1138" d="M16 1001v70h146v178q0 45 9 85t30.5 68t58.5 44t90 16q18 0 39 -1t41 -5v-70q-29 6 -68 7q-51 0 -86.5 -29t-35.5 -111v-182h178v-70h-178v-1001h-78v1001h-146zM434 1001v70h146v178q0 45 9 85t30.5 68t58.5 44t90 16q18 0 38.5 -1t41.5 -5v-70q-29 6 -68 7 q-51 0 -87 -29t-36 -111v-182h179v-70h-179v-1001h-77v1001h-146zM948 0v1071h78v-1071h-78zM948 1253v209h78v-209h-78z" />
<glyph unicode="&#xfb04;" horiz-adv-x="1138" d="M16 1001v70h146v178q0 45 9 85t30.5 68t58.5 44t90 16q18 0 39 -1t41 -5v-70q-29 6 -68 7q-51 0 -86.5 -29t-35.5 -111v-182h178v-70h-178v-1001h-78v1001h-146zM434 1001v70h146v178q0 45 9 85t30.5 68t58.5 44t90 16q18 0 38.5 -1t41.5 -5v-70q-29 6 -68 7 q-51 0 -87 -29t-36 -111v-182h179v-70h-179v-1001h-77v1001h-146zM948 0v1462h78v-1462h-78z" />
</font>
</defs>
</svg>
